<?xml version="1.0" encoding="UTF-8" standalone="no"?>
<svg
   xmlns:dc="http://purl.org/dc/elements/1.1/"
   xmlns:cc="http://creativecommons.org/ns#"
   xmlns:rdf="http://www.w3.org/1999/02/22-rdf-syntax-ns#"
   xmlns:svg="http://www.w3.org/2000/svg"
   xmlns="http://www.w3.org/2000/svg"
   xmlns:sodipodi="http://sodipodi.sourceforge.net/DTD/sodipodi-0.dtd"
   xmlns:inkscape="http://www.inkscape.org/namespaces/inkscape"
   width="310mm"
   height="180mm"
   viewBox="0 0 31000 18000"
   version="1.1"
   stroke-width="28.222"
   stroke-linejoin="round"
   xml:space="preserve"
   id="svg414"
   sodipodi:docname="colors_bounds.svg"
   inkscape:version="1.0.1 (3bc2e813f5, 2020-09-07)"><metadata
   id="metadata420"><rdf:RDF><cc:Work
       rdf:about=""><dc:format>image/svg+xml</dc:format><dc:type
         rdf:resource="http://purl.org/dc/dcmitype/StillImage" /></cc:Work></rdf:RDF></metadata><defs
   id="defs418"><rect
     x="30397.594"
     y="12913.176"
     width="3537.4439"
     height="3193.6879"
     id="rect1255" /></defs><sodipodi:namedview
   pagecolor="#ffffff"
   bordercolor="#666666"
   borderopacity="1"
   objecttolerance="10"
   gridtolerance="10"
   guidetolerance="10"
   inkscape:pageopacity="0"
   inkscape:pageshadow="2"
   inkscape:window-width="1852"
   inkscape:window-height="976"
   id="namedview416"
   showgrid="false"
   inkscape:zoom="1"
   inkscape:cx="628.01968"
   inkscape:cy="386.13731"
   inkscape:window-x="30"
   inkscape:window-y="30"
   inkscape:window-maximized="0"
   inkscape:current-layer="svg414"
   inkscape:document-rotation="0" />
 <path
   fill="rgb(255,255,255)"
   stroke="none"
   d="M 15519,18006 L 0,18006 0,0 31038,0 31038,18006 15519,18006 Z"
   id="path214" />
 <path
   fill="none"
   stroke="rgb(179,179,179)"
   stroke-linejoin="round"
   d="M 14062,17436 L 1451,17436 1451,360 26673,360 26673,17436 14062,17436 Z"
   id="path216" />
 <path
   fill="none"
   stroke="rgb(179,179,179)"
   stroke-linejoin="round"
   d="M 26673,17435 L 1451,17435"
   id="path218" />
 <path
   fill="none"
   stroke="rgb(179,179,179)"
   stroke-linejoin="round"
   d="M 26673,14086 L 1451,14086"
   id="path220" />
 <path
   fill="none"
   stroke="rgb(179,179,179)"
   stroke-linejoin="round"
   d="M 26673,10738 L 1451,10738"
   id="path222" />
 <path
   fill="none"
   stroke="rgb(179,179,179)"
   stroke-linejoin="round"
   d="M 26673,7390 L 1451,7390"
   id="path224" />
 <path
   fill="none"
   stroke="rgb(179,179,179)"
   stroke-linejoin="round"
   d="M 26673,4042 L 1451,4042"
   id="path226" />
 <path
   fill="none"
   stroke="rgb(179,179,179)"
   stroke-linejoin="round"
   d="M 26673,693 L 1451,693"
   id="path228" />
 <path
   fill="none"
   stroke="rgb(179,179,179)"
   stroke-linejoin="round"
   d="M 1451,17435 L 26673,17435"
   id="path230" />
 <path
   fill="none"
   stroke="rgb(179,179,179)"
   stroke-linejoin="round"
   d="M 1301,17435 L 1451,17435"
   id="path232" />
 <path
   fill="none"
   stroke="rgb(179,179,179)"
   stroke-linejoin="round"
   d="M 1301,17435 L 1451,17435"
   id="path234" />
 <path
   fill="none"
   stroke="rgb(179,179,179)"
   stroke-linejoin="round"
   d="M 1301,14086 L 1451,14086"
   id="path236" />
 <path
   fill="none"
   stroke="rgb(179,179,179)"
   stroke-linejoin="round"
   d="M 1301,14086 L 1451,14086"
   id="path238" />
 <path
   fill="none"
   stroke="rgb(179,179,179)"
   stroke-linejoin="round"
   d="M 1301,10738 L 1451,10738"
   id="path240" />
 <path
   fill="none"
   stroke="rgb(179,179,179)"
   stroke-linejoin="round"
   d="M 1301,10738 L 1451,10738"
   id="path242" />
 <path
   fill="none"
   stroke="rgb(179,179,179)"
   stroke-linejoin="round"
   d="M 1301,7390 L 1451,7390"
   id="path244" />
 <path
   fill="none"
   stroke="rgb(179,179,179)"
   stroke-linejoin="round"
   d="M 1301,7390 L 1451,7390"
   id="path246" />
 <path
   fill="none"
   stroke="rgb(179,179,179)"
   stroke-linejoin="round"
   d="M 1301,4042 L 1451,4042"
   id="path248" />
 <path
   fill="none"
   stroke="rgb(179,179,179)"
   stroke-linejoin="round"
   d="M 1301,4042 L 1451,4042"
   id="path250" />
 <path
   fill="none"
   stroke="rgb(179,179,179)"
   stroke-linejoin="round"
   d="M 1301,693 L 1451,693"
   id="path252" />
 <path
   fill="none"
   stroke="rgb(179,179,179)"
   stroke-linejoin="round"
   d="M 1301,693 L 1451,693"
   id="path254" />
 <path
   fill="none"
   stroke="rgb(179,179,179)"
   stroke-linejoin="round"
   d="M 1451,17435 L 1451,359"
   id="path256" />
 <path
   fill="none"
   stroke="rgb(255,0,0)"
   stroke-width="80"
   stroke-linejoin="round"
   d="M 1451,17368 L 1463,17301 1476,17368 1488,17435 1501,17435 1514,17435 1539,17368 1551,17435 1564,17435 1577,17368 1589,17435 1602,17435 1615,17368 1627,17435 1640,17368 1652,17435 1678,17368 1690,17435 1703,17435 1715,17435 1741,17435 1753,17435 1766,17368 1779,17435 1791,17368 1804,17301 1816,17368 1829,17301 1842,17368 1854,17435 1880,17435 1892,17435 1905,17368 1917,17301 1930,17368 1943,17435 1955,17368 1968,17301 1980,17368 1993,17435 2006,17435 2018,17368 2031,17301 2044,17234 2056,17167 2069,17100 2081,17033 2094,16966 2107,16899 2119,16966 2132,16899 2144,16966 2157,16899 2170,16832 2182,16765 2195,16832 2208,16765 2220,16832 2233,16899 2245,16832 2258,16765 2271,16832 2283,16765 2296,16698 2309,16765 2321,16832 2334,16765 2346,16832 2359,16765 2372,16832 2384,16899 2397,16832 2409,16899 2422,16966 2435,16899 2447,16832 2460,16765 2473,16698 2485,16631 2498,16698 2510,16765 2523,16698 2536,16765 2548,16832 2561,16899 2573,16966 2586,17033 2599,17100 2611,17167 2624,17234 2637,17301 2649,17368 2662,17435 2674,17368 2687,17435 2700,17435 2712,17435 2725,17435 2738,17368 2750,17301 2763,17234 2775,17167 2788,17234 2801,17167 2813,17100 2826,17033 2838,16966 2851,17033 2864,16966 2876,16899 2889,16832 2902,16765 2914,16832 2927,16765 2939,16832 2952,16899 2965,16832 2977,16765 2990,16832 3002,16765 3015,16832 3028,16899 3040,16832 3053,16899 3066,16966 3078,16899 3091,16832 3103,16899 3116,16832 3129,16765 3141,16832 3154,16899 3167,16832 3179,16765 3192,16832 3204,16899 3217,16966 3230,16899 3242,16832 3255,16899 3267,16966 3280,17033 3293,17100 3305,17167 3318,17100 3331,17167 3343,17100 3356,17167 3368,17100 3381,17033 3394,17100 3406,17033 3419,17100 3431,17033 3444,16966 3457,16899 3469,16966 3482,17033 3495,16966 3507,16899 3520,16966 3532,16899 3545,16832 3558,16765 3570,16832 3583,16899 3596,16832 3608,16765 3621,16698 3633,16631 3646,16564 3659,16631 3671,16698 3684,16765 3696,16832 3709,16765 3722,16698 3734,16765 3747,16832 3760,16899 3772,16832 3785,16765 3797,16832 3810,16765 3823,16832 3835,16765 3848,16832 3861,16899 3873,16832 3886,16765 3898,16698 3911,16631 3924,16698 3936,16631 3949,16564 3961,16497 3974,16430 3987,16363 3999,16430 4012,16363 4025,16296 4037,16229 4050,16162 4062,16229 4075,16296 4088,16229 4100,16162 4113,16229 4125,16296 4138,16229 4151,16296 4163,16363 4176,16296 4189,16229 4201,16162 4214,16095 4226,16162 4239,16095 4252,16162 4264,16095 4277,16028 4290,15961 4302,16028 4315,16095 4327,16162 4340,16095 4353,16028 4365,15961 4378,15894 4390,15827 4403,15894 4416,15827 4428,15760 4441,15693 4454,15626 4466,15693 4479,15626 4491,15693 4504,15760 4517,15693 4529,15760 4542,15693 4554,15760 4567,15693 4580,15760 4592,15827 4605,15894 4618,15827 4630,15760 4643,15827 4655,15894 4668,15961 4681,16028 4693,16095 4706,16162 4719,16095 4731,16028 4744,15961 4756,15894 4769,15827 4782,15760 4794,15693 4807,15760 4819,15827 4832,15760 4845,15827 4857,15760 4870,15693 4883,15626 4895,15693 4908,15760 4920,15827 4933,15894 4946,15961 4958,16028 4971,15961 4983,15894 4996,15827 5009,15760 5021,15827 5034,15760 5047,15693 5059,15626 5072,15693 5084,15760 5097,15693 5110,15626 5122,15559 5135,15626 5148,15559 5160,15626 5173,15559 5185,15626 5198,15559 5211,15626 5223,15693 5236,15626 5248,15559 5261,15492 5274,15559 5286,15492 5299,15559 5312,15492 5324,15425 5337,15358 5349,15292 5362,15225 5375,15292 5387,15225 5400,15292 5412,15225 5425,15292 5438,15358 5450,15292 5463,15358 5476,15425 5488,15358 5501,15292 5513,15225 5526,15292 5539,15358 5551,15292 5564,15225 5577,15292 5589,15358 5602,15425 5614,15492 5627,15425 5640,15492 5652,15559 5665,15626 5677,15559 5690,15626 5703,15693 5715,15760 5728,15827 5741,15894 5753,15961 5766,16028 5778,15961 5791,16028 5804,16095 5816,16028 5829,16095 5841,16162 5854,16229 5867,16162 5879,16229 5892,16162 5905,16229 5917,16296 5930,16229 5942,16296 5955,16363 5968,16296 5980,16229 5993,16162 6006,16095 6018,16028 6031,16095 6043,16028 6056,15961 6069,15894 6081,15827 6094,15894 6106,15961 6119,15894 6132,15961 6144,15894 6157,15961 6170,16028 6182,16095 6195,16028 6207,16095 6220,16028 6233,15961 6245,16028 6258,15961 6271,16028 6283,15961 6296,15894 6308,15961 6321,15894 6334,15961 6346,16028 6359,15961 6371,15894 6384,15961 6397,16028 6409,15961 6422,15894 6435,15827 6447,15894 6460,15961 6472,15894 6485,15827 6498,15894 6510,15961 6523,16028 6535,16095 6548,16162 6561,16229 6573,16162 6586,16095 6599,16028 6611,16095 6624,16028 6636,16095 6649,16028 6662,16095 6674,16162 6687,16229 6700,16296 6712,16229 6725,16162 6737,16229 6750,16296 6763,16363 6775,16296 6788,16363 6800,16296 6813,16363 6826,16296 6838,16229 6851,16296 6864,16363 6876,16430 6889,16363 6901,16296 6914,16363 6927,16296 6939,16363 6952,16430 6964,16363 6977,16296 6990,16229 7002,16296 7015,16229 7028,16296 7040,16229 7053,16296 7065,16363 7078,16296 7091,16363 7103,16430 7116,16363 7129,16430 7141,16363 7154,16430 7166,16497 7179,16564 7192,16497 7204,16564 7217,16631 7229,16698 7242,16631 7255,16698 7267,16765 7280,16832 7293,16765 7305,16698 7318,16765 7330,16832 7343,16765 7356,16832 7368,16899 7381,16832 7393,16899 7406,16966 7419,17033 7431,17100 7444,17033 7457,17100 7469,17033 7482,16966 7494,16899 7507,16832 7520,16899 7532,16832 7545,16899 7558,16832 7570,16899 7583,16966 7595,16899 7608,16832 7621,16899 7633,16966 7646,16899 7658,16966 7671,16899 7684,16832 7696,16765 7709,16698 7722,16631 7734,16698 7747,16765 7759,16832 7772,16899 7785,16832 7797,16899 7810,16966 7822,16899 7835,16966 7848,17033 7860,16966 7873,17033 7886,17100 7898,17033 7911,16966 7923,16899 7936,16832 7949,16899 7961,16832 7974,16899 7987,16966 7999,17033 8012,17100 8024,17167 8037,17234 8050,17167 8062,17100 8075,17167 8087,17100 8100,17033 8113,17100 8125,17033 8138,17100 8151,17167 8163,17234 8176,17301 8188,17368 8201,17435 8214,17435 8226,17435 8239,17435 8251,17435 8277,17435 8289,17368 8302,17301 8315,17368 8327,17301 8340,17234 8352,17301 8365,17234 8378,17301 8390,17368 8403,17435 8416,17435 8428,17368 8441,17301 8453,17368 8466,17435 8479,17368 8491,17301 8504,17234 8516,17167 8529,17100 8542,17033 8554,17100 8567,17033 8580,16966 8592,16899 8605,16832 8617,16765 8630,16832 8643,16765 8655,16698 8668,16631 8681,16564 8693,16497 8706,16564 8718,16631 8731,16564 8744,16631 8756,16564 8769,16631 8781,16564 8794,16497 8807,16564 8819,16497 8832,16430 8845,16497 8857,16564 8870,16497 8882,16564 8895,16631 8908,16698 8920,16765 8933,16832 8945,16765 8958,16832 8971,16765 8983,16698 8996,16631 9009,16698 9021,16765 9034,16832 9046,16899 9059,16832 9072,16765 9084,16832 9097,16765 9110,16698 9122,16765 9135,16832 9147,16765 9160,16698 9173,16631 9185,16698 9198,16631 9210,16698 9223,16765 9236,16832 9248,16765 9261,16832 9274,16899 9286,16832 9299,16899 9311,16832 9324,16765 9337,16832 9349,16765 9362,16832 9374,16765 9387,16698 9400,16765 9412,16698 9425,16631 9438,16698 9450,16765 9463,16832 9475,16899 9488,16832 9501,16765 9513,16698 9526,16631 9539,16564 9551,16497 9564,16430 9576,16363 9589,16296 9602,16229 9614,16296 9627,16229 9639,16296 9652,16363 9665,16296 9677,16229 9690,16296 9703,16363 9715,16430 9728,16497 9740,16564 9753,16631 9766,16564 9778,16631 9791,16564 9803,16497 9816,16430 9829,16497 9841,16430 9854,16497 9867,16430 9879,16363 9892,16430 9904,16363 9917,16430 9930,16363 9942,16296 9955,16363 9968,16296 9980,16363 9993,16296 10005,16363 10018,16430 10031,16497 10043,16430 10056,16363 10068,16296 10081,16229 10094,16296 10106,16363 10119,16296 10132,16363 10144,16296 10157,16229 10169,16296 10182,16363 10195,16296 10207,16363 10220,16296 10232,16363 10245,16430 10258,16497 10270,16430 10283,16363 10296,16430 10308,16497 10321,16564 10333,16497 10346,16564 10359,16497 10371,16430 10384,16363 10397,16296 10409,16363 10422,16430 10434,16497 10447,16430 10460,16363 10472,16430 10485,16363 10497,16430 10510,16497 10523,16564 10535,16631 10548,16564 10561,16497 10573,16564 10586,16497 10598,16564 10611,16631 10624,16564 10636,16497 10649,16564 10662,16497 10674,16564 10687,16497 10699,16430 10712,16497 10725,16430 10737,16363 10750,16296 10762,16229 10775,16296 10788,16363 10800,16430 10813,16363 10826,16430 10838,16497 10851,16430 10863,16363 10876,16430 10889,16497 10901,16430 10914,16363 10926,16296 10939,16229 10952,16162 10964,16229 10977,16296 10990,16363 11002,16296 11015,16363 11027,16430 11040,16363 11053,16430 11065,16497 11078,16564 11091,16497 11103,16430 11116,16363 11128,16296 11141,16363 11154,16430 11166,16497 11179,16430 11191,16497 11204,16564 11217,16631 11229,16698 11242,16631 11255,16698 11267,16631 11280,16564 11292,16497 11305,16564 11318,16631 11330,16564 11343,16497 11355,16564 11368,16497 11381,16564 11393,16631 11406,16564 11419,16497 11431,16564 11444,16631 11456,16698 11469,16631 11482,16698 11494,16765 11507,16698 11520,16765 11532,16698 11545,16631 11557,16564 11570,16497 11583,16430 11595,16497 11608,16564 11620,16497 11633,16564 11646,16631 11658,16698 11671,16631 11684,16564 11696,16631 11709,16564 11721,16497 11734,16430 11747,16363 11759,16430 11772,16363 11784,16296 11797,16363 11810,16296 11822,16363 11835,16430 11848,16363 11860,16296 11873,16229 11885,16162 11898,16095 11911,16028 11923,16095 11936,16028 11949,16095 11961,16162 11974,16095 11986,16028 11999,15961 12012,15894 12024,15961 12037,15894 12049,15827 12062,15760 12075,15693 12087,15626 12100,15559 12113,15626 12125,15559 12138,15492 12150,15425 12163,15358 12176,15292 12188,15225 12201,15292 12213,15358 12226,15425 12239,15492 12251,15425 12264,15492 12277,15559 12289,15626 12302,15559 12314,15626 12327,15693 12340,15626 12352,15693 12365,15760 12378,15827 12390,15894 12403,15961 12415,16028 12428,16095 12441,16028 12453,16095 12466,16028 12478,16095 12491,16028 12504,15961 12516,16028 12529,16095 12542,16162 12554,16095 12567,16162 12579,16229 12592,16162 12605,16229 12617,16296 12630,16363 12642,16430 12655,16497 12668,16564 12680,16497 12693,16430 12706,16497 12718,16564 12731,16497 12743,16564 12756,16631 12769,16698 12781,16631 12794,16698 12807,16765 12819,16698 12832,16631 12844,16698 12857,16631 12870,16564 12882,16631 12895,16698 12907,16765 12920,16832 12933,16765 12945,16698 12958,16631 12971,16564 12983,16497 12996,16430 13008,16497 13021,16564 13034,16631 13046,16564 13059,16497 13072,16430 13084,16363 13097,16296 13109,16229 13122,16162 13135,16095 13147,16162 13160,16095 13172,16162 13185,16229 13198,16296 13210,16363 13223,16430 13236,16497 13248,16430 13261,16497 13273,16430 13286,16497 13299,16564 13311,16497 13324,16430 13336,16363 13349,16430 13362,16363 13374,16430 13387,16363 13400,16296 13412,16363 13425,16296 13437,16363 13450,16430 13463,16363 13475,16430 13488,16497 13501,16564 13513,16631 13526,16564 13538,16631 13551,16698 13564,16631 13576,16698 13589,16765 13601,16698 13614,16631 13627,16564 13639,16497 13652,16564 13665,16497 13677,16430 13690,16363 13702,16430 13715,16497 13728,16430 13740,16363 13753,16430 13765,16363 13778,16430 13791,16497 13803,16430 13816,16363 13829,16430 13841,16497 13854,16564 13866,16497 13879,16430 13892,16497 13904,16564 13917,16497 13930,16430 13942,16363 13955,16430 13967,16363 13980,16430 13993,16363 14005,16430 14018,16363 14030,16430 14043,16363 14056,16296 14068,16229 14081,16162 14094,16095 14106,16028 14119,15961 14131,15894 14144,15827 14157,15760 14169,15693 14182,15626 14194,15559 14207,15492 14220,15425 14232,15358 14245,15292 14258,15225 14270,15158 14283,15091 14295,15024 14308,14957 14321,14890 14333,14823 14346,14756 14359,14689 14371,14622 14384,14555 14396,14488 14409,14421 14422,14354 14434,14287 14447,14220 14459,14153 14472,14086 14485,14019 14497,13952 14510,13885 14523,13818 14535,13751 14548,13684 14560,13617 14573,13550 14586,13483 14598,13416 14611,13349 14623,13282 14636,13215 14649,13149 14661,13082 14674,13015 14687,12948 14699,12881 14712,12814 14724,12747 14737,12680 14750,12613 14762,12546 14775,12479 14788,12412 14800,12345 14813,12278 14825,12211 14838,12144 14851,12077 14863,12010 14876,11943 14888,11876 14901,11809 14914,11742 14926,11675 14939,11608 14952,11541 14964,11474 14977,11407 14989,11340 15002,11273 15015,11206 15027,11139 15040,11072 15052,11006 15065,10939 15078,10872 15090,10805 15103,10738 15116,10671 15128,10604 15141,10537 15153,10470 15166,10403 15179,10336 15191,10269 15204,10202 15217,10135 15229,10068 15242,10001 15254,9934 15267,9867 15280,9800 15292,9733 15305,9666 15317,9599 15330,9532 15343,9465 15355,9398 15368,9331 15381,9264 15393,9197 15406,9130 15418,9063 15431,8997 15444,8930 15456,8864 15469,8797 15482,8730 15494,8663 15507,8596 15519,8529 15531,8462 15544,8395 15556,8328 15569,8261 15581,8194 15594,8127 15607,8060 15619,7993 15632,7926 15645,7859 15657,7792 15670,7725 15682,7658 15695,7591 15708,7524 15720,7457 15733,7390 15745,7323 15758,7256 15771,7189 15783,7122 15796,7055 15809,7122 15821,7189 15834,7256 15846,7189 15859,7256 15872,7189 15884,7122 15897,7055 15910,7122 15922,7055 15935,7122 15947,7055 15960,6988 15973,7055 15985,7122 15998,7189 16010,7122 16023,7189 16036,7122 16048,7189 16061,7256 16074,7189 16086,7122 16099,7055 16111,6988 16124,7055 16137,6988 16149,6921 16162,6988 16174,6921 16187,6854 16200,6921 16212,6988 16225,6921 16238,6854 16250,6921 16263,6988 16275,6921 16288,6854 16301,6921 16313,6988 16326,6921 16339,6988 16351,6921 16364,6988 16376,7055 16389,7122 16402,7055 16414,7122 16427,7189 16439,7256 16452,7189 16465,7256 16477,7189 16490,7122 16503,7055 16515,7122 16528,7189 16540,7122 16553,7055 16566,6988 16578,6921 16591,6854 16603,6787 16616,6854 16629,6787 16641,6854 16654,6787 16667,6721 16679,6787 16692,6721 16704,6654 16717,6721 16730,6654 16742,6587 16755,6520 16768,6587 16780,6654 16793,6587 16805,6520 16818,6453 16831,6386 16843,6453 16856,6520 16868,6587 16881,6520 16894,6453 16906,6386 16919,6319 16932,6252 16944,6185 16957,6118 16969,6051 16982,6118 16995,6051 17007,5984 17020,5917 17032,5850 17045,5783 17058,5850 17070,5917 17083,5850 17096,5783 17108,5850 17121,5783 17133,5716 17146,5783 17159,5716 17171,5783 17184,5716 17197,5649 17209,5716 17222,5783 17234,5716 17247,5783 17260,5716 17272,5649 17285,5582 17297,5649 17310,5716 17323,5783 17335,5850 17348,5783 17361,5850 17373,5783 17386,5850 17398,5783 17411,5850 17424,5917 17436,5984 17449,6051 17461,5984 17474,5917 17487,5850 17499,5783 17512,5716 17525,5783 17537,5850 17550,5783 17562,5716 17575,5783 17588,5850 17600,5917 17613,5850 17626,5783 17638,5850 17651,5783 17663,5850 17676,5783 17689,5716 17701,5783 17714,5716 17726,5649 17739,5716 17752,5649 17764,5716 17777,5783 17790,5850 17802,5783 17815,5716 17827,5649 17840,5716 17853,5783 17865,5850 17878,5783 17891,5850 17903,5917 17916,5850 17928,5783 17941,5850 17954,5917 17966,5984 17979,5917 17991,5984 18004,5917 18017,5850 18029,5783 18042,5850 18055,5783 18067,5716 18080,5649 18092,5582 18105,5649 18118,5582 18130,5649 18143,5716 18155,5783 18168,5850 18181,5917 18193,5850 18206,5917 18219,5984 18231,6051 18244,5984 18256,6051 18269,5984 18282,6051 18294,5984 18307,5917 18320,5850 18332,5783 18345,5850 18357,5917 18370,5984 18383,5917 18395,5850 18408,5783 18420,5716 18433,5649 18446,5582 18458,5515 18471,5582 18484,5649 18496,5716 18509,5649 18521,5582 18534,5515 18547,5582 18559,5649 18572,5582 18584,5515 18597,5582 18610,5649 18622,5716 18635,5783 18648,5850 18660,5917 18673,5984 18685,5917 18698,5984 18711,5917 18723,5984 18736,5917 18749,5850 18761,5917 18774,5850 18786,5917 18799,5850 18812,5783 18824,5716 18837,5783 18849,5716 18862,5649 18875,5716 18887,5649 18900,5582 18913,5649 18925,5582 18938,5515 18950,5448 18963,5381 18976,5314 18988,5247 19001,5180 19013,5113 19026,5046 19039,5113 19051,5180 19064,5113 19077,5180 19089,5247 19102,5180 19114,5113 19127,5180 19140,5247 19152,5314 19165,5381 19178,5448 19190,5515 19203,5582 19215,5515 19228,5582 19241,5515 19253,5582 19266,5649 19278,5582 19291,5515 19304,5582 19316,5649 19329,5582 19342,5649 19354,5716 19367,5649 19379,5716 19392,5783 19405,5850 19417,5917 19430,5850 19442,5917 19455,5850 19468,5917 19480,5850 19493,5783 19506,5850 19518,5917 19531,5984 19543,6051 19556,5984 19569,6051 19581,6118 19594,6185 19607,6252 19619,6319 19632,6386 19644,6453 19657,6520 19670,6453 19682,6386 19695,6319 19707,6386 19720,6453 19733,6386 19745,6319 19758,6252 19771,6319 19783,6252 19796,6319 19808,6386 19821,6453 19834,6386 19846,6453 19859,6386 19872,6319 19884,6386 19897,6319 19909,6252 19922,6319 19935,6252 19947,6185 19960,6252 19972,6319 19985,6252 19998,6319 20010,6252 20023,6319 20036,6252 20048,6185 20061,6118 20073,6185 20086,6118 20099,6185 20111,6252 20124,6319 20136,6252 20149,6319 20162,6386 20174,6453 20187,6386 20200,6319 20212,6252 20225,6185 20237,6118 20250,6051 20263,6118 20275,6185 20288,6118 20301,6185 20313,6118 20326,6185 20338,6252 20351,6185 20364,6118 20376,6185 20389,6252 20401,6319 20414,6386 20427,6453 20439,6520 20452,6587 20465,6654 20477,6721 20490,6787 20502,6854 20515,6921 20528,6988 20540,7055 20553,7122 20565,7189 20578,7256 20591,7323 20603,7390 20616,7457 20629,7524 20641,7591 20654,7658 20666,7725 20679,7792 20692,7859 20704,7926 20717,7993 20730,8060 20742,8127 20755,8194 20767,8261 20780,8328 20793,8395 20805,8462 20818,8529 20830,8596 20843,8663 20856,8730 20868,8797 20881,8864 20894,8930 20906,8997 20919,9063 20931,9130 20944,9197 20957,9264 20969,9331 20982,9398 20994,9465 21007,9532 21020,9599 21032,9666 21045,9733 21058,9800 21070,9867 21083,9934 21095,10001 21108,10068 21121,10135 21133,10202 21146,10269 21159,10336 21171,10403 21184,10470 21196,10537 21209,10604 21222,10671 21234,10738 21247,10805 21259,10872 21272,10939 21285,11006 21297,11072 21310,11139 21323,11206 21335,11273 21348,11340 21360,11407 21373,11474 21386,11541 21398,11608 21411,11675 21423,11742 21436,11809 21449,11876 21461,11943 21474,12010 21487,12077 21499,12144 21512,12211 21524,12278 21537,12345 21550,12412 21562,12479 21575,12546 21588,12613 21600,12680 21613,12747 21625,12814 21638,12881 21651,12948 21663,13015 21676,13082 21688,13149 21701,13215 21714,13282 21726,13349 21739,13416 21752,13483 21764,13550 21777,13617 21789,13684 21802,13751 21815,13818 21827,13885 21840,13952 21852,14019 21865,14086 21878,14153 21890,14220 21903,14287 21916,14354 21928,14421 21941,14488 21953,14555 21966,14622 21979,14689 21991,14756 22004,14823 22017,14890 22029,14957 22042,15024 22054,15091 22067,15158 22080,15225 22092,15292 22105,15358 22117,15425 22130,15492 22143,15559 22155,15626 22168,15693 22181,15760 22193,15827 22206,15894 22218,15961 22231,16028 22244,16095 22256,16162 22269,16229 22282,16296 22294,16363 22307,16430 22319,16497 22332,16564 22345,16631 22357,16698 22370,16765 22382,16832 22395,16899 22408,16966 22420,17033 22433,17100 22446,17167 22458,17234 22471,17301 22483,17368 22496,17435 22509,17435 22521,17435 22534,17435 22546,17435 22572,17435 22584,17435 22597,17435 22610,17435 22622,17435 22647,17435 22660,17435 22673,17435 22685,17435 22711,17435 22723,17435 22736,17435 22748,17435 22774,17435 22786,17435 22799,17435 22811,17435 22824,17435 22849,17435 22862,17435 22875,17435 22887,17435 22912,17435 22925,17435 22938,17435 22950,17435 22963,17435 22988,17435 23001,17435 23013,17435 23026,17435 23051,17435 23064,17435 23076,17435 23089,17435 23114,17435 23127,17435 23140,17435 23152,17435 23165,17435 23190,17435 23203,17435 23215,17435 23228,17435 23253,17435 23266,17435 23278,17435 23291,17435 23316,17435 23329,17435 23341,17435 23354,17435 23367,17435 23392,17435 23404,17435 23417,17435 23430,17435 23455,17435 23468,17435 23480,17435 23493,17435 23518,17435 23531,17435 23543,17435 23556,17435 23569,17435 23594,17435 23606,17435 23619,17435 23632,17435 23657,17435 23669,17435 23682,17435 23695,17435 23720,17435 23733,17435 23745,17435 23758,17435 23770,17435 23796,17435 23808,17435 23821,17435 23833,17435 23859,17435 23871,17435 23884,17435 23897,17435 23922,17435 23934,17435 23947,17435 23960,17435 23972,17435 23998,17435 24010,17435 24023,17435 24035,17435 24061,17435 24073,17435 24086,17435 24098,17435 24124,17435 24136,17435 24149,17435 24162,17435 24174,17435 24199,17435 24212,17435 24225,17435 24237,17435 24262,17435 24275,17435 24288,17435 24300,17435 24326,17435 24338,17435 24351,17435 24363,17435 24376,17435 24401,17435 24414,17435 24427,17435 24439,17435 24464,17435 24477,17435 24490,17435 24502,17435 24527,17435 24540,17435 24553,17435 24565,17435 24578,17435 24603,17435 24616,17435 24628,17435 24641,17435 24666,17435 24679,17435 24692,17435 24704,17435 24729,17435 24742,17435 24755,17435 24767,17435 24780,17435 24805,17435 24818,17435 24830,17435 24843,17435 24868,17435 24881,17435 24893,17435 24906,17435 24919,17435 24944,17435 24956,17435 24969,17435 24982,17435 25007,17435 25020,17435 25032,17435 25045,17435 25070,17435 25083,17435 25095,17435 25108,17435 25121,17435 25146,17435 25158,17435 25171,17435 25184,17435 25209,17435 25221,17435 25234,17435 25247,17435 25272,17435 25285,17435 25297,17435 25310,17435 25322,17435 25348,17435 25360,17435 25373,17435 25385,17435 25411,17435 25423,17435 25436,17435 25449,17435 25474,17435 25486,17435 25499,17435 25512,17435 25524,17435 25550,17435 25562,17435 25575,17435 25587,17435 25613,17435 25625,17435 25638,17435 25650,17435 25676,17435 25688,17435 25701,17435 25714,17435 25726,17435 25751,17435 25764,17435 25777,17435 25789,17435 25814,17435 25827,17435 25840,17435 25852,17435 25878,17435 25890,17435 25903,17435 25915,17435 25928,17435 25953,17435 25966,17435 25979,17435 25991,17435 26016,17435 26029,17435 26042,17435 26054,17435 26079,17435 26092,17435 26105,17435 26117,17435 26130,17435 26155,17435 26168,17435 26180,17435 26193,17435 26218,17435 26231,17435 26243,17435 26256,17435 26281,17435 26294,17435 26307,17435 26319,17435 26332,17435 26357,17435 26370,17435 26382,17435 26395,17435 26420,17435 26433,17435 26445,17435 26458,17435 26483,17435 26496,17435 26508,17435 26521,17435 26534,17435 26559,17435 26572,17435 26584,17435 26597,17435 26622,17435 26635,17435 26647,17435 26660,17435 26673,17435"
   id="path258" />
 <path
   fill="none"
   stroke="rgb(0,169,51)"
   stroke-width="80"
   stroke-linejoin="round"
   d="M 1451,17435 L 1463,17368 1476,17301 1488,17234 1501,17167 1514,17100 1526,17033 1539,17100 1551,17167 1564,17234 1577,17167 1589,17234 1602,17301 1615,17368 1627,17435 1640,17435 1652,17368 1665,17301 1678,17234 1690,17301 1703,17234 1715,17301 1728,17368 1741,17435 1753,17435 1766,17435 1779,17368 1791,17435 1804,17435 1816,17368 1829,17435 1842,17368 1854,17435 1867,17368 1880,17301 1892,17368 1905,17301 1917,17368 1930,17301 1943,17368 1955,17435 1968,17368 1980,17435 2006,17368 2018,17435 2031,17435 2044,17435 2056,17435 2081,17435 2094,17368 2107,17301 2119,17368 2132,17435 2144,17435 2157,17368 2170,17435 2182,17435 2208,17368 2220,17301 2233,17368 2245,17301 2258,17234 2271,17301 2283,17368 2296,17435 2309,17368 2321,17301 2334,17234 2346,17167 2359,17234 2372,17301 2384,17368 2397,17435 2409,17435 2422,17368 2435,17301 2447,17368 2460,17435 2485,17435 2498,17368 2510,17301 2523,17234 2536,17167 2548,17100 2561,17033 2573,16966 2586,17033 2599,16966 2611,17033 2624,17100 2637,17167 2649,17234 2662,17167 2674,17100 2687,17167 2700,17234 2712,17167 2725,17100 2738,17033 2750,16966 2763,16899 2775,16832 2788,16765 2801,16698 2813,16631 2826,16564 2838,16497 2851,16564 2864,16497 2876,16564 2889,16497 2902,16430 2914,16363 2927,16296 2939,16229 2952,16162 2965,16095 2977,16162 2990,16229 3002,16162 3015,16229 3028,16162 3040,16229 3053,16162 3066,16095 3078,16028 3091,15961 3103,15894 3116,15961 3129,16028 3141,16095 3154,16162 3167,16229 3179,16162 3192,16095 3204,16028 3217,16095 3230,16162 3242,16229 3255,16296 3267,16363 3280,16430 3293,16363 3305,16430 3318,16363 3331,16430 3343,16497 3356,16430 3368,16497 3381,16564 3394,16631 3406,16564 3419,16497 3431,16430 3444,16497 3457,16430 3469,16497 3482,16564 3495,16497 3507,16430 3520,16363 3532,16296 3545,16229 3558,16296 3570,16363 3583,16296 3596,16363 3608,16430 3621,16363 3633,16430 3646,16363 3659,16296 3671,16229 3684,16162 3696,16095 3709,16028 3722,15961 3734,16028 3747,15961 3760,16028 3772,16095 3785,16162 3797,16229 3810,16162 3823,16229 3835,16296 3848,16363 3861,16296 3873,16229 3886,16162 3898,16095 3911,16028 3924,16095 3936,16162 3949,16095 3961,16028 3974,16095 3987,16162 3999,16229 4012,16162 4025,16229 4037,16162 4050,16229 4062,16162 4075,16095 4088,16028 4100,15961 4113,15894 4125,15827 4138,15760 4151,15827 4163,15760 4176,15827 4189,15894 4201,15827 4214,15894 4226,15827 4239,15894 4252,15827 4264,15760 4277,15827 4290,15894 4302,15827 4315,15760 4327,15827 4340,15894 4353,15827 4365,15894 4378,15961 4390,16028 4403,16095 4416,16162 4428,16229 4441,16296 4454,16229 4466,16162 4479,16095 4491,16028 4504,15961 4517,16028 4529,15961 4542,16028 4554,15961 4567,16028 4580,15961 4592,16028 4605,15961 4618,15894 4630,15961 4643,15894 4655,15827 4668,15760 4681,15827 4693,15894 4706,15961 4719,15894 4731,15961 4744,15894 4756,15961 4769,15894 4782,15827 4794,15894 4807,15827 4819,15894 4832,15827 4845,15760 4857,15693 4870,15626 4883,15693 4895,15760 4908,15827 4920,15760 4933,15827 4946,15894 4958,15961 4971,15894 4983,15827 4996,15894 5009,15827 5021,15760 5034,15693 5047,15760 5059,15827 5072,15894 5084,15961 5097,15894 5110,15961 5122,15894 5135,15827 5148,15760 5160,15827 5173,15894 5185,15827 5198,15760 5211,15693 5223,15626 5236,15559 5248,15492 5261,15559 5274,15626 5286,15559 5299,15492 5312,15559 5324,15626 5337,15693 5349,15626 5362,15693 5375,15626 5387,15559 5400,15626 5412,15693 5425,15626 5438,15559 5450,15492 5463,15425 5476,15358 5488,15292 5501,15358 5513,15292 5526,15358 5539,15425 5551,15358 5564,15292 5577,15225 5589,15292 5602,15358 5614,15425 5627,15358 5640,15425 5652,15492 5665,15425 5677,15492 5690,15425 5703,15492 5715,15425 5728,15358 5741,15425 5753,15358 5766,15292 5778,15358 5791,15425 5804,15492 5816,15425 5829,15492 5841,15559 5854,15492 5867,15559 5879,15492 5892,15559 5905,15626 5917,15693 5930,15626 5942,15693 5955,15626 5968,15693 5980,15626 5993,15693 6006,15626 6018,15559 6031,15626 6043,15693 6056,15760 6069,15693 6081,15760 6094,15693 6106,15626 6119,15693 6132,15626 6144,15693 6157,15626 6170,15693 6182,15760 6195,15693 6207,15760 6220,15827 6233,15894 6245,15827 6258,15894 6271,15961 6283,16028 6296,16095 6308,16162 6321,16229 6334,16162 6346,16095 6359,16162 6371,16095 6384,16028 6397,16095 6409,16162 6422,16229 6435,16162 6447,16229 6460,16162 6472,16229 6485,16296 6498,16229 6510,16296 6523,16363 6535,16296 6548,16363 6561,16430 6573,16497 6586,16430 6599,16363 6611,16430 6624,16363 6636,16296 6649,16229 6662,16296 6674,16363 6687,16430 6700,16497 6712,16564 6725,16631 6737,16698 6750,16631 6763,16698 6775,16765 6788,16832 6800,16765 6813,16832 6826,16899 6838,16832 6851,16765 6864,16832 6876,16765 6889,16832 6901,16899 6914,16966 6927,17033 6939,17100 6952,17033 6964,17100 6977,17167 6990,17100 7002,17033 7015,16966 7028,17033 7040,16966 7053,16899 7065,16832 7078,16765 7091,16832 7103,16765 7116,16832 7129,16765 7141,16698 7154,16765 7166,16698 7179,16765 7192,16832 7204,16765 7217,16832 7229,16765 7242,16832 7255,16765 7267,16832 7280,16899 7293,16832 7305,16765 7318,16698 7330,16765 7343,16832 7356,16899 7368,16832 7381,16765 7393,16832 7406,16899 7419,16832 7431,16899 7444,16832 7457,16899 7469,16832 7482,16899 7494,16966 7507,17033 7520,17100 7532,17167 7545,17100 7558,17033 7570,16966 7583,16899 7595,16966 7608,16899 7621,16966 7633,16899 7646,16966 7658,17033 7671,16966 7684,17033 7696,17100 7709,17033 7722,17100 7734,17033 7747,16966 7759,16899 7772,16832 7785,16765 7797,16698 7810,16631 7822,16564 7835,16497 7848,16430 7860,16363 7873,16296 7886,16229 7898,16162 7911,16095 7923,16028 7936,15961 7949,15894 7961,15827 7974,15760 7987,15693 7999,15626 8012,15559 8024,15492 8037,15425 8050,15358 8062,15292 8075,15225 8087,15158 8100,15091 8113,15024 8125,14957 8138,14890 8151,14823 8163,14756 8176,14689 8188,14622 8201,14555 8214,14488 8226,14421 8239,14354 8251,14287 8264,14220 8277,14153 8289,14086 8302,14019 8315,13952 8327,13885 8340,13818 8352,13751 8365,13684 8378,13617 8390,13550 8403,13483 8416,13416 8428,13349 8441,13282 8453,13215 8466,13149 8479,13082 8491,13015 8504,12948 8516,12881 8529,12814 8542,12747 8554,12680 8567,12613 8580,12546 8592,12479 8605,12412 8617,12345 8630,12278 8643,12211 8655,12144 8668,12077 8681,12010 8693,11943 8706,11876 8718,11809 8731,11742 8744,11675 8756,11608 8769,11541 8781,11474 8794,11407 8807,11340 8819,11273 8832,11206 8845,11139 8857,11072 8870,11006 8882,10939 8895,10872 8908,10805 8920,10738 8933,10671 8945,10604 8958,10537 8971,10470 8983,10403 8996,10336 9009,10269 9021,10202 9034,10135 9046,10068 9059,10001 9072,9934 9084,9867 9097,9800 9110,9733 9122,9666 9135,9599 9147,9532 9160,9465 9173,9398 9185,9331 9198,9264 9210,9197 9223,9130 9236,9063 9248,8997 9261,8930 9274,8864 9286,8797 9299,8730 9311,8663 9324,8596 9337,8529 9349,8462 9362,8395 9374,8328 9387,8261 9400,8194 9412,8127 9425,8060 9438,7993 9450,7926 9463,7859 9475,7792 9488,7725 9501,7658 9513,7591 9526,7524 9539,7457 9551,7390 9564,7323 9576,7256 9589,7189 9602,7122 9614,7055 9627,6988 9639,6921 9652,6854 9665,6787 9677,6721 9690,6654 9703,6587 9715,6520 9728,6453 9740,6386 9753,6319 9766,6252 9778,6185 9791,6118 9803,6051 9816,5984 9829,5917 9841,5850 9854,5783 9867,5716 9879,5649 9892,5582 9904,5515 9917,5448 9930,5381 9942,5314 9955,5247 9968,5180 9980,5113 9993,5046 10005,4979 10018,5046 10031,4979 10043,4912 10056,4979 10068,4912 10081,4845 10094,4778 10106,4845 10119,4912 10132,4845 10144,4912 10157,4979 10169,5046 10182,4979 10195,5046 10207,4979 10220,5046 10232,4979 10245,4912 10258,4979 10270,5046 10283,4979 10296,4912 10308,4845 10321,4912 10333,4979 10346,5046 10359,4979 10371,5046 10384,4979 10397,5046 10409,4979 10422,5046 10434,4979 10447,4912 10460,4979 10472,5046 10485,4979 10497,4912 10510,4979 10523,4912 10535,4979 10548,4912 10561,4845 10573,4912 10586,4979 10598,4912 10611,4979 10624,4912 10636,4979 10649,4912 10662,4979 10674,4912 10687,4845 10699,4912 10712,4845 10725,4912 10737,4979 10750,5046 10762,4979 10775,4912 10788,4979 10800,4912 10813,4979 10826,5046 10838,4979 10851,5046 10863,4979 10876,4912 10889,4845 10901,4778 10914,4845 10926,4912 10939,4845 10952,4912 10964,4845 10977,4912 10990,4979 11002,4912 11015,4979 11027,5046 11040,4979 11053,4912 11065,4845 11078,4912 11091,4845 11103,4912 11116,4979 11128,5046 11141,4979 11154,4912 11166,4979 11179,4912 11191,4979 11204,4912 11217,4845 11229,4778 11242,4845 11255,4778 11267,4845 11280,4778 11292,4845 11305,4912 11318,4845 11330,4912 11343,4979 11355,5046 11368,4979 11381,4912 11393,4845 11406,4912 11419,4845 11431,4912 11444,4979 11456,4912 11469,4979 11482,5046 11494,4979 11507,4912 11520,4845 11532,4912 11545,4845 11557,4778 11570,4845 11583,4912 11595,4979 11608,5046 11620,4979 11633,4912 11646,4845 11658,4912 11671,4979 11684,5046 11696,4979 11709,5046 11721,4979 11734,4912 11747,4845 11759,4778 11772,4845 11784,4778 11797,4845 11810,4912 11822,4845 11835,4912 11848,4845 11860,4912 11873,4845 11885,4912 11898,4845 11911,4778 11923,4845 11936,4778 11949,4711 11961,4644 11974,4711 11986,4644 11999,4711 12012,4644 12024,4578 12037,4644 12049,4711 12062,4778 12075,4711 12087,4778 12100,4845 12113,4778 12125,4845 12138,4778 12150,4711 12163,4778 12176,4845 12188,4778 12201,4845 12213,4912 12226,4845 12239,4912 12251,4845 12264,4912 12277,4845 12289,4912 12302,4979 12314,4912 12327,4845 12340,4912 12352,4845 12365,4778 12378,4711 12390,4778 12403,4711 12415,4778 12428,4711 12441,4778 12453,4845 12466,4778 12478,4711 12491,4778 12504,4711 12516,4778 12529,4845 12542,4778 12554,4845 12567,4778 12579,4845 12592,4912 12605,4845 12617,4778 12630,4845 12642,4778 12655,4845 12668,4912 12680,4979 12693,4912 12706,4845 12718,4778 12731,4711 12743,4644 12756,4711 12769,4644 12781,4578 12794,4644 12807,4578 12819,4644 12832,4578 12844,4511 12857,4444 12870,4511 12882,4444 12895,4377 12907,4444 12920,4377 12933,4444 12945,4511 12958,4444 12971,4511 12983,4444 12996,4377 13008,4444 13021,4377 13034,4444 13046,4377 13059,4444 13072,4511 13084,4444 13097,4377 13109,4310 13122,4377 13135,4444 13147,4511 13160,4578 13172,4511 13185,4578 13198,4511 13210,4444 13223,4511 13236,4578 13248,4511 13261,4444 13273,4511 13286,4578 13299,4511 13311,4578 13324,4644 13336,4578 13349,4511 13362,4444 13374,4511 13387,4444 13400,4377 13412,4310 13425,4243 13437,4176 13450,4243 13463,4176 13475,4109 13488,4176 13501,4109 13513,4176 13526,4243 13538,4310 13551,4243 13564,4176 13576,4243 13589,4310 13601,4377 13614,4444 13627,4377 13639,4444 13652,4511 13665,4444 13677,4511 13690,4444 13702,4377 13715,4444 13728,4511 13740,4444 13753,4377 13765,4310 13778,4243 13791,4310 13803,4377 13816,4444 13829,4377 13841,4310 13854,4243 13866,4176 13879,4243 13892,4176 13904,4109 13917,4042 13930,4109 13942,4042 13955,3975 13967,3908 13980,3975 13993,4042 14005,3975 14018,4042 14030,3975 14043,3908 14056,3975 14068,3908 14081,3841 14094,3774 14106,3707 14119,3774 14131,3841 14144,3908 14157,3975 14169,4042 14182,4109 14194,4176 14207,4109 14220,4042 14232,4109 14245,4042 14258,3975 14270,4042 14283,4109 14295,4042 14308,3975 14321,4042 14333,4109 14346,4176 14359,4243 14371,4310 14384,4243 14396,4310 14409,4377 14422,4310 14434,4243 14447,4176 14459,4109 14472,4176 14485,4109 14497,4176 14510,4109 14523,4176 14535,4109 14548,4042 14560,4109 14573,4176 14586,4243 14598,4176 14611,4109 14623,4042 14636,4109 14649,4042 14661,3975 14674,4042 14687,4109 14699,4176 14712,4243 14724,4176 14737,4243 14750,4176 14762,4243 14775,4176 14788,4109 14800,4042 14813,3975 14825,4042 14838,3975 14851,4042 14863,3975 14876,3908 14888,3841 14901,3774 14914,3707 14926,3774 14939,3707 14952,3640 14964,3573 14977,3506 14989,3439 15002,3506 15015,3573 15027,3640 15040,3573 15052,3640 15065,3707 15078,3640 15090,3573 15103,3640 15116,3573 15128,3506 15141,3573 15153,3640 15166,3573 15179,3506 15191,3439 15204,3372 15217,3439 15229,3506 15242,3573 15254,3506 15267,3573 15280,3640 15292,3707 15305,3774 15317,3841 15330,3908 15343,3841 15355,3908 15368,3975 15381,3908 15393,3841 15406,3774 15418,3841 15431,3774 15444,3707 15456,3774 15469,3841 15482,3908 15494,3975 15507,4042 15519,4109 15531,4042 15544,3975 15556,3908 15569,3841 15581,3908 15594,3841 15607,3908 15619,3841 15632,3774 15645,3707 15657,3774 15670,3841 15682,3908 15695,3975 15708,4042 15720,3975 15733,4042 15745,4109 15758,4176 15771,4109 15783,4176 15796,4243 15809,4176 15821,4243 15834,4310 15846,4377 15859,4444 15872,4377 15884,4310 15897,4377 15910,4310 15922,4243 15935,4176 15947,4109 15960,4176 15973,4243 15985,4176 15998,4243 16010,4310 16023,4377 16036,4310 16048,4243 16061,4310 16074,4377 16086,4310 16099,4243 16111,4310 16124,4243 16137,4176 16149,4109 16162,4042 16174,4109 16187,4042 16200,4109 16212,4176 16225,4109 16238,4042 16250,4109 16263,4176 16275,4243 16288,4176 16301,4109 16313,4176 16326,4109 16339,4176 16351,4243 16364,4310 16376,4377 16389,4310 16402,4243 16414,4176 16427,4243 16439,4310 16452,4377 16465,4444 16477,4511 16490,4444 16503,4377 16515,4444 16528,4377 16540,4444 16553,4511 16566,4578 16578,4644 16591,4578 16603,4511 16616,4578 16629,4511 16641,4578 16654,4511 16667,4578 16679,4511 16692,4444 16704,4511 16717,4578 16730,4644 16742,4711 16755,4778 16768,4845 16780,4778 16793,4845 16805,4778 16818,4845 16831,4912 16843,4845 16856,4778 16868,4711 16881,4644 16894,4711 16906,4644 16919,4711 16932,4644 16944,4578 16957,4644 16969,4578 16982,4511 16995,4578 17007,4644 17020,4578 17032,4644 17045,4711 17058,4778 17070,4845 17083,4778 17096,4711 17108,4778 17121,4711 17133,4778 17146,4711 17159,4644 17171,4711 17184,4644 17197,4711 17209,4778 17222,4711 17234,4778 17247,4845 17260,4912 17272,4845 17285,4778 17297,4711 17310,4778 17323,4711 17335,4778 17348,4711 17361,4644 17373,4578 17386,4511 17398,4444 17411,4377 17424,4444 17436,4377 17449,4444 17461,4511 17474,4578 17487,4511 17499,4578 17512,4511 17525,4444 17537,4377 17550,4444 17562,4511 17575,4578 17588,4644 17600,4711 17613,4778 17626,4845 17638,4912 17651,4845 17663,4778 17676,4845 17689,4912 17701,4979 17714,5046 17726,4979 17739,4912 17752,4979 17764,4912 17777,4845 17790,4912 17802,4845 17815,4912 17827,4845 17840,4912 17853,4845 17865,4912 17878,4979 17891,4912 17903,4979 17916,5046 17928,4979 17941,4912 17954,4845 17966,4912 17979,4845 17991,4778 18004,4845 18017,4778 18029,4845 18042,4778 18055,4845 18067,4778 18080,4711 18092,4778 18105,4845 18118,4912 18130,4979 18143,5046 18155,4979 18168,4912 18181,4845 18193,4912 18206,4845 18219,4778 18231,4711 18244,4644 18256,4711 18269,4778 18282,4845 18294,4912 18307,4979 18320,5046 18332,4979 18345,4912 18357,4979 18370,4912 18383,4845 18395,4912 18408,4845 18420,4778 18433,4845 18446,4912 18458,4979 18471,5046 18484,4979 18496,4912 18509,4979 18521,4912 18534,4845 18547,4912 18559,4979 18572,5046 18584,4979 18597,5046 18610,4979 18622,4912 18635,4845 18648,4778 18660,4711 18673,4644 18685,4711 18698,4778 18711,4845 18723,4778 18736,4711 18749,4644 18761,4578 18774,4511 18786,4578 18799,4511 18812,4444 18824,4377 18837,4310 18849,4243 18862,4176 18875,4109 18887,4176 18900,4243 18913,4176 18925,4109 18938,4042 18950,3975 18963,3908 18976,3975 18988,3908 19001,3975 19013,4042 19026,4109 19039,4042 19051,4109 19064,4176 19077,4109 19089,4042 19102,4109 19114,4176 19127,4243 19140,4310 19152,4243 19165,4176 19178,4109 19190,4042 19203,3975 19215,4042 19228,3975 19241,4042 19253,4109 19266,4176 19278,4109 19291,4176 19304,4243 19316,4176 19329,4243 19342,4176 19354,4109 19367,4042 19379,3975 19392,4042 19405,3975 19417,4042 19430,3975 19442,4042 19455,4109 19468,4176 19480,4109 19493,4042 19506,4109 19518,4042 19531,4109 19543,4042 19556,3975 19569,4042 19581,3975 19594,3908 19607,3975 19619,3908 19632,3975 19644,3908 19657,3975 19670,3908 19682,3841 19695,3774 19707,3707 19720,3774 19733,3841 19745,3774 19758,3707 19771,3774 19783,3707 19796,3640 19808,3573 19821,3640 19834,3707 19846,3774 19859,3707 19872,3774 19884,3841 19897,3908 19909,3841 19922,3908 19935,3841 19947,3908 19960,3841 19972,3908 19985,3975 19998,4042 20010,4109 20023,4176 20036,4243 20048,4176 20061,4243 20073,4176 20086,4109 20099,4042 20111,4109 20124,4176 20136,4243 20149,4176 20162,4109 20174,4042 20187,4109 20200,4176 20212,4109 20225,4042 20237,3975 20250,3908 20263,3975 20275,3908 20288,3975 20301,3908 20313,3975 20326,4042 20338,4109 20351,4176 20364,4109 20376,4176 20389,4243 20401,4310 20414,4377 20427,4444 20439,4511 20452,4578 20465,4644 20477,4711 20490,4778 20502,4845 20515,4912 20528,4979 20540,5046 20553,5113 20565,5180 20578,5247 20591,5314 20603,5381 20616,5448 20629,5515 20641,5582 20654,5649 20666,5716 20679,5783 20692,5850 20704,5917 20717,5984 20730,6051 20742,6118 20755,6185 20767,6252 20780,6319 20793,6386 20805,6453 20818,6520 20830,6587 20843,6654 20856,6721 20868,6787 20881,6854 20894,6921 20906,6988 20919,7055 20931,7122 20944,7189 20957,7256 20969,7323 20982,7390 20994,7457 21007,7524 21020,7591 21032,7658 21045,7725 21058,7792 21070,7859 21083,7926 21095,7993 21108,8060 21121,8127 21133,8194 21146,8261 21159,8328 21171,8395 21184,8462 21196,8529 21209,8596 21222,8663 21234,8730 21247,8797 21259,8864 21272,8930 21285,8997 21297,9063 21310,9130 21323,9197 21335,9264 21348,9331 21360,9398 21373,9465 21386,9532 21398,9599 21411,9666 21423,9733 21436,9800 21449,9867 21461,9934 21474,10001 21487,10068 21499,10135 21512,10202 21524,10269 21537,10336 21550,10403 21562,10470 21575,10537 21588,10604 21600,10671 21613,10738 21625,10805 21638,10872 21651,10939 21663,11006 21676,11072 21688,11139 21701,11206 21714,11273 21726,11340 21739,11407 21752,11474 21764,11541 21777,11608 21789,11675 21802,11742 21815,11809 21827,11876 21840,11943 21852,12010 21865,12077 21878,12144 21890,12211 21903,12278 21916,12345 21928,12412 21941,12479 21953,12546 21966,12613 21979,12680 21991,12747 22004,12814 22017,12881 22029,12948 22042,13015 22054,13082 22067,13149 22080,13215 22092,13282 22105,13349 22117,13416 22130,13483 22143,13550 22155,13617 22168,13684 22181,13751 22193,13818 22206,13885 22218,13952 22231,14019 22244,14086 22256,14153 22269,14220 22282,14287 22294,14354 22307,14421 22319,14488 22332,14555 22345,14622 22357,14689 22370,14756 22382,14823 22395,14890 22408,14957 22420,15024 22433,15091 22446,15158 22458,15225 22471,15292 22483,15358 22496,15425 22509,15492 22521,15559 22534,15626 22546,15693 22559,15760 22572,15827 22584,15894 22597,15961 22610,16028 22622,16095 22635,16162 22647,16229 22660,16296 22673,16363 22685,16430 22698,16497 22711,16564 22723,16631 22736,16698 22748,16765 22761,16832 22774,16899 22786,16966 22799,17033 22811,17100 22824,17167 22837,17234 22849,17301 22862,17368 22875,17435 22887,17435 22912,17435 22925,17435 22938,17435 22950,17435 22963,17435 22988,17435 23001,17435 23013,17435 23026,17435 23051,17435 23064,17435 23076,17435 23089,17435 23114,17435 23127,17435 23140,17435 23152,17435 23165,17435 23190,17435 23203,17435 23215,17435 23228,17435 23253,17435 23266,17435 23278,17435 23291,17435 23316,17435 23329,17435 23341,17435 23354,17435 23367,17435 23392,17435 23404,17435 23417,17435 23430,17435 23455,17435 23468,17435 23480,17435 23493,17435 23518,17435 23531,17435 23543,17435 23556,17435 23569,17435 23594,17435 23606,17435 23619,17435 23632,17435 23657,17435 23669,17435 23682,17435 23695,17435 23720,17435 23733,17435 23745,17435 23758,17435 23770,17435 23796,17435 23808,17435 23821,17435 23833,17435 23859,17435 23871,17435 23884,17435 23897,17435 23922,17435 23934,17435 23947,17435 23960,17435 23972,17435 23998,17435 24010,17435 24023,17435 24035,17435 24061,17435 24073,17435 24086,17435 24098,17435 24124,17435 24136,17435 24149,17435 24162,17435 24174,17435 24199,17435 24212,17435 24225,17435 24237,17435 24262,17435 24275,17435 24288,17435 24300,17435 24326,17435 24338,17435 24351,17435 24363,17435 24376,17435 24401,17435 24414,17435 24427,17435 24439,17435 24464,17435 24477,17435 24490,17435 24502,17435 24527,17435 24540,17435 24553,17435 24565,17435 24578,17435 24603,17435 24616,17435 24628,17435 24641,17435 24666,17435 24679,17435 24692,17435 24704,17435 24729,17435 24742,17435 24755,17435 24767,17435 24780,17435 24805,17435 24818,17435 24830,17435 24843,17435 24868,17435 24881,17435 24893,17435 24906,17435 24919,17435 24944,17435 24956,17435 24969,17435 24982,17435 25007,17435 25020,17435 25032,17435 25045,17435 25070,17435 25083,17435 25095,17435 25108,17435 25121,17435 25146,17435 25158,17435 25171,17435 25184,17435 25209,17435 25221,17435 25234,17435 25247,17435 25272,17435 25285,17435 25297,17435 25310,17435 25322,17435 25348,17435 25360,17435 25373,17435 25385,17435 25411,17435 25423,17435 25436,17435 25449,17435 25474,17435 25486,17435 25499,17435 25512,17435 25524,17435 25550,17435 25562,17435 25575,17435 25587,17435 25613,17435 25625,17435 25638,17435 25650,17435 25676,17435 25688,17435 25701,17435 25714,17435 25726,17435 25751,17435 25764,17435 25777,17435 25789,17435 25814,17435 25827,17435 25840,17435 25852,17435 25878,17435 25890,17435 25903,17435 25915,17435 25928,17435 25953,17435 25966,17435 25979,17435 25991,17435 26016,17435 26029,17435 26042,17435 26054,17435 26079,17435 26092,17435 26105,17435 26117,17435 26130,17435 26155,17435 26168,17435 26180,17435 26193,17435 26218,17435 26231,17435 26243,17435 26256,17435 26281,17435 26294,17435 26307,17435 26319,17435 26332,17435 26357,17435 26370,17435 26382,17435 26395,17435 26420,17435 26433,17435 26445,17435 26458,17435 26483,17435 26496,17435 26508,17435 26521,17435 26534,17435 26559,17435 26572,17435 26584,17435 26597,17435 26622,17435 26635,17435 26647,17435 26660,17435 26673,17435"
   id="path260" />
 <path
   fill="none"
   stroke="rgb(42,96,153)"
   stroke-width="80"
   stroke-linejoin="round"
   d="M 1451,17368 L 1463,17301 1476,17234 1488,17167 1501,17100 1514,17033 1526,16966 1539,16899 1551,16832 1564,16765 1577,16698 1589,16631 1602,16564 1615,16497 1627,16430 1640,16363 1652,16296 1665,16229 1678,16162 1690,16095 1703,16028 1715,15961 1728,15894 1741,15827 1753,15760 1766,15693 1779,15626 1791,15559 1804,15492 1816,15425 1829,15358 1842,15292 1854,15225 1867,15158 1880,15091 1892,15024 1905,14957 1917,14890 1930,14823 1943,14756 1955,14689 1968,14622 1980,14555 1993,14488 2006,14421 2018,14354 2031,14287 2044,14220 2056,14153 2069,14086 2081,14019 2094,13952 2107,13885 2119,13818 2132,13751 2144,13684 2157,13617 2170,13550 2182,13483 2195,13416 2208,13349 2220,13282 2233,13215 2245,13149 2258,13082 2271,13015 2283,12948 2296,12881 2309,12814 2321,12747 2334,12680 2346,12613 2359,12546 2372,12479 2384,12412 2397,12345 2409,12278 2422,12211 2435,12144 2447,12077 2460,12010 2473,11943 2485,11876 2498,11809 2510,11742 2523,11675 2536,11608 2548,11541 2561,11474 2573,11407 2586,11340 2599,11273 2611,11206 2624,11139 2637,11072 2649,11006 2662,10939 2674,10872 2687,10805 2700,10738 2712,10671 2725,10604 2738,10537 2750,10470 2763,10403 2775,10336 2788,10269 2801,10202 2813,10135 2826,10068 2838,10001 2851,9934 2864,9867 2876,9800 2889,9733 2902,9666 2914,9599 2927,9532 2939,9465 2952,9398 2965,9331 2977,9264 2990,9197 3002,9130 3015,9063 3028,8997 3040,8930 3053,8864 3066,8797 3078,8730 3091,8663 3103,8596 3116,8529 3129,8462 3141,8395 3154,8328 3167,8261 3179,8194 3192,8127 3204,8060 3217,7993 3230,7926 3242,7859 3255,7792 3267,7725 3280,7658 3293,7591 3305,7524 3318,7457 3331,7390 3343,7323 3356,7256 3368,7189 3381,7122 3394,7055 3406,6988 3419,6921 3431,6854 3444,6787 3457,6721 3469,6654 3482,6587 3495,6520 3507,6453 3520,6386 3532,6319 3545,6252 3558,6185 3570,6118 3583,6051 3596,5984 3608,5917 3621,5850 3633,5783 3646,5716 3659,5649 3671,5582 3684,5515 3696,5448 3709,5381 3722,5314 3734,5247 3747,5180 3760,5113 3772,5046 3785,4979 3797,4912 3810,4979 3823,4912 3835,4979 3848,5046 3861,4979 3873,5046 3886,4979 3898,5046 3911,4979 3924,4912 3936,4845 3949,4912 3961,4845 3974,4912 3987,4845 3999,4912 4012,4845 4025,4778 4037,4711 4050,4644 4062,4578 4075,4511 4088,4444 4100,4377 4113,4444 4125,4511 4138,4444 4151,4511 4163,4444 4176,4511 4189,4444 4201,4511 4214,4444 4226,4377 4239,4444 4252,4511 4264,4578 4277,4511 4290,4578 4302,4644 4315,4711 4327,4778 4340,4845 4353,4912 4365,4845 4378,4778 4390,4711 4403,4644 4416,4578 4428,4511 4441,4444 4454,4511 4466,4444 4479,4511 4491,4578 4504,4511 4517,4578 4529,4511 4542,4578 4554,4644 4567,4578 4580,4511 4592,4578 4605,4644 4618,4711 4630,4644 4643,4578 4655,4644 4668,4711 4681,4778 4693,4711 4706,4644 4719,4578 4731,4644 4744,4711 4756,4644 4769,4711 4782,4644 4794,4711 4807,4644 4819,4711 4832,4644 4845,4578 4857,4511 4870,4444 4883,4377 4895,4310 4908,4243 4920,4176 4933,4109 4946,4042 4958,4109 4971,4176 4983,4243 4996,4176 5009,4109 5021,4176 5034,4243 5047,4176 5059,4109 5072,4176 5084,4243 5097,4176 5110,4109 5122,4042 5135,3975 5148,4042 5160,3975 5173,4042 5185,4109 5198,4176 5211,4243 5223,4176 5236,4109 5248,4176 5261,4109 5274,4042 5286,3975 5299,3908 5312,3841 5324,3774 5337,3841 5349,3774 5362,3841 5375,3908 5387,3841 5400,3908 5412,3975 5425,3908 5438,3841 5450,3774 5463,3707 5476,3774 5488,3707 5501,3774 5513,3707 5526,3640 5539,3573 5551,3506 5564,3573 5577,3640 5589,3573 5602,3640 5614,3573 5627,3640 5640,3573 5652,3506 5665,3439 5677,3372 5690,3439 5703,3506 5715,3573 5728,3640 5741,3573 5753,3506 5766,3439 5778,3506 5791,3439 5804,3372 5816,3439 5829,3506 5841,3573 5854,3506 5867,3573 5879,3640 5892,3573 5905,3640 5917,3707 5930,3774 5942,3841 5955,3908 5968,3841 5980,3908 5993,3975 6006,4042 6018,4109 6031,4176 6043,4243 6056,4176 6069,4109 6081,4042 6094,4109 6106,4176 6119,4243 6132,4176 6144,4243 6157,4176 6170,4109 6182,4042 6195,3975 6207,3908 6220,3841 6233,3908 6245,3975 6258,3908 6271,3975 6283,3908 6296,3975 6308,4042 6321,4109 6334,4042 6346,3975 6359,4042 6371,4109 6384,4176 6397,4109 6409,4176 6422,4109 6435,4042 6447,3975 6460,4042 6472,3975 6485,3908 6498,3975 6510,4042 6523,3975 6535,3908 6548,3841 6561,3774 6573,3841 6586,3908 6599,3975 6611,3908 6624,3975 6636,3908 6649,3975 6662,3908 6674,3975 6687,4042 6700,3975 6712,3908 6725,3841 6737,3908 6750,3841 6763,3774 6775,3841 6788,3908 6800,3841 6813,3774 6826,3841 6838,3774 6851,3707 6864,3640 6876,3707 6889,3640 6901,3707 6914,3640 6927,3573 6939,3640 6952,3707 6964,3640 6977,3707 6990,3774 7002,3707 7015,3640 7028,3707 7040,3640 7053,3707 7065,3774 7078,3707 7091,3640 7103,3707 7116,3774 7129,3841 7141,3774 7154,3707 7166,3774 7179,3707 7192,3774 7204,3707 7217,3774 7229,3841 7242,3774 7255,3707 7267,3774 7280,3707 7293,3774 7305,3707 7318,3774 7330,3841 7343,3908 7356,3975 7368,3908 7381,3841 7393,3908 7406,3975 7419,4042 7431,3975 7444,3908 7457,3841 7469,3908 7482,3975 7494,4042 7507,3975 7520,3908 7532,3975 7545,3908 7558,3841 7570,3774 7583,3707 7595,3774 7608,3841 7621,3908 7633,3841 7646,3908 7658,3841 7671,3908 7684,3975 7696,4042 7709,3975 7722,4042 7734,4109 7747,4176 7759,4109 7772,4042 7785,3975 7797,4042 7810,4109 7822,4176 7835,4109 7848,4176 7860,4243 7873,4310 7886,4243 7898,4310 7911,4377 7923,4310 7936,4377 7949,4310 7961,4243 7974,4176 7987,4109 7999,4176 8012,4243 8024,4176 8037,4243 8050,4176 8062,4109 8075,4176 8087,4243 8100,4310 8113,4377 8125,4444 8138,4511 8151,4578 8163,4511 8176,4444 8188,4511 8201,4578 8214,4511 8226,4444 8239,4377 8251,4310 8264,4243 8277,4176 8289,4109 8302,4176 8315,4109 8327,4176 8340,4243 8352,4310 8365,4243 8378,4176 8390,4243 8403,4310 8416,4243 8428,4310 8441,4377 8453,4310 8466,4377 8479,4310 8491,4243 8504,4310 8516,4243 8529,4310 8542,4377 8554,4444 8567,4377 8580,4310 8592,4243 8605,4310 8617,4243 8630,4310 8643,4377 8655,4310 8668,4377 8681,4444 8693,4511 8706,4444 8718,4377 8731,4444 8744,4511 8756,4444 8769,4511 8781,4444 8794,4511 8807,4444 8819,4377 8832,4444 8845,4377 8857,4310 8870,4377 8882,4444 8895,4377 8908,4444 8920,4511 8933,4444 8945,4377 8958,4444 8971,4377 8983,4310 8996,4377 9009,4310 9021,4243 9034,4176 9046,4243 9059,4176 9072,4243 9084,4176 9097,4243 9110,4310 9122,4243 9135,4176 9147,4109 9160,4176 9173,4109 9185,4176 9198,4243 9210,4176 9223,4109 9236,4042 9248,4109 9261,4042 9274,4109 9286,4176 9299,4109 9311,4176 9324,4243 9337,4310 9349,4377 9362,4310 9374,4377 9387,4444 9400,4377 9412,4310 9425,4243 9438,4176 9450,4109 9463,4176 9475,4243 9488,4176 9501,4243 9513,4176 9526,4243 9539,4310 9551,4243 9564,4310 9576,4243 9589,4310 9602,4243 9614,4176 9627,4109 9639,4176 9652,4109 9665,4042 9677,3975 9690,4042 9703,3975 9715,3908 9728,3975 9740,4042 9753,3975 9766,4042 9778,4109 9791,4176 9803,4243 9816,4176 9829,4109 9841,4176 9854,4109 9867,4042 9879,4109 9892,4176 9904,4243 9917,4176 9930,4109 9942,4042 9955,4109 9968,4176 9980,4109 9993,4176 10005,4243 10018,4310 10031,4377 10043,4310 10056,4377 10068,4444 10081,4511 10094,4578 10106,4644 10119,4578 10132,4511 10144,4578 10157,4511 10169,4444 10182,4511 10195,4444 10207,4377 10220,4444 10232,4377 10245,4310 10258,4243 10270,4176 10283,4243 10296,4176 10308,4109 10321,4042 10333,3975 10346,4042 10359,3975 10371,4042 10384,4109 10397,4176 10409,4243 10422,4176 10434,4243 10447,4176 10460,4243 10472,4310 10485,4243 10497,4310 10510,4243 10523,4310 10535,4243 10548,4310 10561,4243 10573,4176 10586,4109 10598,4176 10611,4243 10624,4310 10636,4377 10649,4310 10662,4377 10674,4310 10687,4377 10699,4310 10712,4243 10725,4176 10737,4243 10750,4176 10762,4243 10775,4176 10788,4109 10800,4176 10813,4243 10826,4310 10838,4243 10851,4176 10863,4109 10876,4042 10889,4109 10901,4176 10914,4243 10926,4310 10939,4243 10952,4310 10964,4243 10977,4310 10990,4377 11002,4310 11015,4377 11027,4310 11040,4243 11053,4310 11065,4243 11078,4310 11091,4243 11103,4176 11116,4243 11128,4310 11141,4243 11154,4310 11166,4377 11179,4310 11191,4243 11204,4176 11217,4243 11229,4176 11242,4109 11255,4042 11267,3975 11280,3908 11292,3841 11305,3908 11318,3975 11330,3908 11343,3975 11355,4042 11368,3975 11381,3908 11393,3975 11406,3908 11419,3975 11431,3908 11444,3975 11456,4042 11469,3975 11482,4042 11494,3975 11507,3908 11520,3841 11532,3774 11545,3841 11557,3774 11570,3707 11583,3640 11595,3707 11608,3774 11620,3841 11633,3774 11646,3707 11658,3774 11671,3841 11684,3774 11696,3841 11709,3908 11721,3975 11734,3908 11747,3841 11759,3774 11772,3841 11784,3774 11797,3707 11810,3774 11822,3841 11835,3774 11848,3841 11860,3774 11873,3841 11885,3774 11898,3841 11911,3774 11923,3707 11936,3640 11949,3573 11961,3506 11974,3439 11986,3506 11999,3439 12012,3506 12024,3573 12037,3640 12049,3707 12062,3774 12075,3841 12087,3774 12100,3841 12113,3908 12125,3975 12138,3908 12150,3975 12163,4042 12176,3975 12188,4042 12201,4109 12213,4042 12226,3975 12239,4042 12251,4109 12264,4042 12277,4109 12289,4176 12302,4243 12314,4176 12327,4243 12340,4176 12352,4109 12365,4042 12378,3975 12390,3908 12403,3975 12415,4042 12428,3975 12441,4042 12453,4109 12466,4176 12478,4109 12491,4176 12504,4109 12516,4176 12529,4243 12542,4176 12554,4109 12567,4176 12579,4243 12592,4310 12605,4377 12617,4444 12630,4511 12642,4578 12655,4644 12668,4711 12680,4778 12693,4845 12706,4912 12718,4845 12731,4778 12743,4711 12756,4778 12769,4711 12781,4778 12794,4711 12807,4778 12819,4845 12832,4778 12844,4711 12857,4644 12870,4711 12882,4644 12895,4711 12907,4778 12920,4845 12933,4778 12945,4845 12958,4778 12971,4845 12983,4912 12996,4979 13008,5046 13021,4979 13034,5046 13046,4979 13059,4912 13072,4979 13084,4912 13097,4845 13109,4778 13122,4711 13135,4778 13147,4845 13160,4912 13172,4979 13185,5046 13198,5113 13210,5046 13223,4979 13236,4912 13248,4979 13261,5046 13273,5113 13286,5180 13299,5113 13311,5180 13324,5113 13336,5180 13349,5113 13362,5046 13374,5113 13387,5180 13400,5113 13412,5046 13425,5113 13437,5046 13450,4979 13463,5046 13475,5113 13488,5046 13501,5113 13513,5046 13526,5113 13538,5180 13551,5247 13564,5180 13576,5113 13589,5046 13601,5113 13614,5046 13627,4979 13639,5046 13652,5113 13665,5046 13677,4979 13690,5046 13702,5113 13715,5180 13728,5247 13740,5180 13753,5247 13765,5314 13778,5381 13791,5314 13803,5381 13816,5314 13829,5247 13841,5180 13854,5113 13866,5180 13879,5247 13892,5314 13904,5381 13917,5314 13930,5247 13942,5314 13955,5381 13967,5448 13980,5381 13993,5314 14005,5247 14018,5180 14030,5113 14043,5180 14056,5113 14068,5180 14081,5247 14094,5314 14106,5381 14119,5448 14131,5515 14144,5582 14157,5649 14169,5716 14182,5783 14194,5850 14207,5917 14220,5984 14232,6051 14245,6118 14258,6185 14270,6252 14283,6319 14295,6386 14308,6453 14321,6520 14333,6587 14346,6654 14359,6721 14371,6787 14384,6854 14396,6921 14409,6988 14422,7055 14434,7122 14447,7189 14459,7256 14472,7323 14485,7390 14497,7457 14510,7524 14523,7591 14535,7658 14548,7725 14560,7792 14573,7859 14586,7926 14598,7993 14611,8060 14623,8127 14636,8194 14649,8261 14661,8328 14674,8395 14687,8462 14699,8529 14712,8596 14724,8663 14737,8730 14750,8797 14762,8864 14775,8930 14788,8997 14800,9063 14813,9130 14825,9197 14838,9264 14851,9331 14863,9398 14876,9465 14888,9532 14901,9599 14914,9666 14926,9733 14939,9800 14952,9867 14964,9934 14977,10001 14989,10068 15002,10135 15015,10202 15027,10269 15040,10336 15052,10403 15065,10470 15078,10537 15090,10604 15103,10671 15116,10738 15128,10805 15141,10872 15153,10939 15166,11006 15179,11072 15191,11139 15204,11206 15217,11273 15229,11340 15242,11407 15254,11474 15267,11541 15280,11608 15292,11675 15305,11742 15317,11809 15330,11876 15343,11943 15355,12010 15368,12077 15381,12144 15393,12211 15406,12278 15418,12345 15431,12412 15444,12479 15456,12546 15469,12613 15482,12680 15494,12747 15507,12814 15519,12747 15531,12814 15544,12881 15556,12814 15569,12881 15581,12948 15594,13015 15607,13082 15619,13149 15632,13082 15645,13149 15657,13082 15670,13015 15682,13082 15695,13149 15708,13082 15720,13015 15733,12948 15745,13015 15758,12948 15771,13015 15783,12948 15796,12881 15809,12948 15821,12881 15834,12948 15846,13015 15859,12948 15872,12881 15884,12814 15897,12747 15910,12814 15922,12881 15935,12814 15947,12747 15960,12814 15973,12747 15985,12814 15998,12881 16010,12948 16023,13015 16036,13082 16048,13149 16061,13215 16074,13282 16086,13215 16099,13149 16111,13082 16124,13149 16137,13082 16149,13015 16162,13082 16174,13149 16187,13215 16200,13282 16212,13215 16225,13282 16238,13349 16250,13416 16263,13483 16275,13416 16288,13349 16301,13416 16313,13483 16326,13416 16339,13349 16351,13416 16364,13483 16376,13550 16389,13483 16402,13550 16414,13483 16427,13416 16439,13349 16452,13282 16465,13215 16477,13149 16490,13215 16503,13149 16515,13082 16528,13149 16540,13082 16553,13149 16566,13082 16578,13149 16591,13215 16603,13149 16616,13082 16629,13015 16641,12948 16654,13015 16667,13082 16679,13149 16692,13215 16704,13282 16717,13215 16730,13282 16742,13349 16755,13416 16768,13349 16780,13416 16793,13483 16805,13416 16818,13483 16831,13416 16843,13349 16856,13416 16868,13349 16881,13416 16894,13483 16906,13550 16919,13483 16932,13550 16944,13617 16957,13684 16969,13617 16982,13550 16995,13483 17007,13416 17020,13349 17032,13282 17045,13349 17058,13416 17070,13483 17083,13416 17096,13483 17108,13416 17121,13483 17133,13416 17146,13483 17159,13550 17171,13483 17184,13416 17197,13483 17209,13550 17222,13617 17234,13550 17247,13483 17260,13550 17272,13617 17285,13684 17297,13751 17310,13684 17323,13751 17335,13684 17348,13617 17361,13684 17373,13617 17386,13684 17398,13617 17411,13550 17424,13483 17436,13550 17449,13617 17461,13550 17474,13483 17487,13416 17499,13349 17512,13416 17525,13483 17537,13416 17550,13349 17562,13282 17575,13349 17588,13416 17600,13349 17613,13416 17626,13483 17638,13550 17651,13483 17663,13550 17676,13483 17689,13416 17701,13483 17714,13550 17726,13617 17739,13684 17752,13617 17764,13550 17777,13483 17790,13550 17802,13617 17815,13550 17827,13483 17840,13550 17853,13617 17865,13684 17878,13617 17891,13550 17903,13483 17916,13416 17928,13349 17941,13282 17954,13349 17966,13416 17979,13483 17991,13416 18004,13483 18017,13416 18029,13483 18042,13416 18055,13483 18067,13416 18080,13483 18092,13416 18105,13349 18118,13282 18130,13215 18143,13149 18155,13082 18168,13149 18181,13082 18193,13149 18206,13215 18219,13282 18231,13349 18244,13416 18256,13483 18269,13416 18282,13349 18294,13282 18307,13349 18320,13282 18332,13215 18345,13149 18357,13082 18370,13149 18383,13215 18395,13282 18408,13215 18420,13282 18433,13215 18446,13282 18458,13215 18471,13149 18484,13082 18496,13149 18509,13215 18521,13149 18534,13082 18547,13015 18559,12948 18572,13015 18584,13082 18597,13149 18610,13215 18622,13282 18635,13215 18648,13149 18660,13215 18673,13282 18685,13349 18698,13416 18711,13483 18723,13416 18736,13483 18749,13416 18761,13483 18774,13416 18786,13483 18799,13550 18812,13483 18824,13416 18837,13349 18849,13416 18862,13483 18875,13416 18887,13349 18900,13282 18913,13215 18925,13282 18938,13215 18950,13282 18963,13349 18976,13282 18988,13349 19001,13282 19013,13215 19026,13282 19039,13215 19051,13149 19064,13082 19077,13149 19089,13215 19102,13282 19114,13215 19127,13282 19140,13215 19152,13282 19165,13349 19178,13282 19190,13215 19203,13282 19215,13349 19228,13282 19241,13215 19253,13282 19266,13215 19278,13282 19291,13215 19304,13282 19316,13349 19329,13416 19342,13349 19354,13282 19367,13349 19379,13416 19392,13349 19405,13282 19417,13215 19430,13282 19442,13215 19455,13149 19468,13082 19480,13149 19493,13082 19506,13149 19518,13082 19531,13149 19543,13082 19556,13015 19569,13082 19581,13015 19594,13082 19607,13015 19619,13082 19632,13149 19644,13215 19657,13282 19670,13349 19682,13282 19695,13349 19707,13282 19720,13215 19733,13282 19745,13349 19758,13282 19771,13349 19783,13416 19796,13483 19808,13416 19821,13483 19834,13416 19846,13349 19859,13416 19872,13483 19884,13416 19897,13483 19909,13416 19922,13349 19935,13282 19947,13215 19960,13282 19972,13215 19985,13282 19998,13349 20010,13282 20023,13349 20036,13282 20048,13215 20061,13149 20073,13082 20086,13015 20099,13082 20111,13015 20124,12948 20136,13015 20149,12948 20162,13015 20174,13082 20187,13149 20200,13215 20212,13282 20225,13215 20237,13282 20250,13349 20263,13416 20275,13483 20288,13416 20301,13483 20313,13550 20326,13483 20338,13416 20351,13349 20364,13282 20376,13349 20389,13416 20401,13483 20414,13550 20427,13617 20439,13684 20452,13751 20465,13818 20477,13885 20490,13952 20502,14019 20515,14086 20528,14153 20540,14220 20553,14287 20565,14354 20578,14421 20591,14488 20603,14555 20616,14622 20629,14689 20641,14756 20654,14823 20666,14890 20679,14957 20692,15024 20704,15091 20717,15158 20730,15225 20742,15292 20755,15358 20767,15425 20780,15492 20793,15559 20805,15626 20818,15693 20830,15760 20843,15827 20856,15894 20868,15961 20881,16028 20894,16095 20906,16162 20919,16229 20931,16296 20944,16363 20957,16430 20969,16497 20982,16564 20994,16631 21007,16698 21020,16765 21032,16832 21045,16899 21058,16966 21070,17033 21083,17100 21095,17167 21108,17234 21121,17301 21133,17368 21146,17435 21159,17435 21171,17435 21184,17435 21196,17435 21209,17435 21234,17435 21247,17435 21259,17435 21272,17435 21297,17435 21310,17435 21323,17435 21335,17435 21360,17435 21373,17435 21386,17435 21398,17435 21411,17435 21436,17435 21449,17435 21461,17435 21474,17435 21499,17435 21512,17435 21524,17435 21537,17435 21562,17435 21575,17435 21588,17435 21600,17435 21613,17435 21638,17435 21651,17435 21663,17435 21676,17435 21701,17435 21714,17435 21726,17435 21739,17435 21764,17435 21777,17435 21789,17435 21802,17435 21815,17435 21840,17435 21852,17435 21865,17435 21878,17435 21903,17435 21916,17435 21928,17435 21941,17435 21966,17435 21979,17435 21991,17435 22004,17435 22017,17435 22042,17435 22054,17435 22067,17435 22080,17435 22105,17435 22117,17435 22130,17435 22143,17435 22168,17435 22181,17435 22193,17435 22206,17435 22218,17435 22244,17435 22256,17435 22269,17435 22282,17435 22307,17435 22319,17435 22332,17435 22345,17435 22370,17435 22382,17435 22395,17435 22408,17435 22420,17435 22446,17435 22458,17435 22471,17435 22483,17435 22509,17435 22521,17435 22534,17435 22546,17435 22572,17435 22584,17435 22597,17435 22610,17435 22622,17435 22647,17435 22660,17435 22673,17435 22685,17435 22711,17435 22723,17435 22736,17435 22748,17435 22774,17435 22786,17435 22799,17435 22811,17435 22824,17435 22849,17435 22862,17435 22875,17435 22887,17435 22912,17435 22925,17435 22938,17435 22950,17435 22963,17435 22988,17435 23001,17435 23013,17435 23026,17435 23051,17435 23064,17435 23076,17435 23089,17435 23114,17435 23127,17435 23140,17435 23152,17435 23165,17435 23190,17435 23203,17435 23215,17435 23228,17435 23253,17435 23266,17435 23278,17435 23291,17435 23316,17435 23329,17435 23341,17435 23354,17435 23367,17435 23392,17435 23404,17435 23417,17435 23430,17435 23455,17435 23468,17435 23480,17435 23493,17435 23518,17435 23531,17435 23543,17435 23556,17435 23569,17435 23594,17435 23606,17435 23619,17435 23632,17435 23657,17435 23669,17435 23682,17435 23695,17435 23720,17435 23733,17435 23745,17435 23758,17435 23770,17435 23796,17435 23808,17435 23821,17435 23833,17435 23859,17435 23871,17435 23884,17435 23897,17435 23922,17435 23934,17435 23947,17435 23960,17435 23972,17435 23998,17435 24010,17435 24023,17435 24035,17435 24061,17435 24073,17435 24086,17435 24098,17435 24124,17435 24136,17435 24149,17435 24162,17435 24174,17435 24199,17435 24212,17435 24225,17435 24237,17435 24262,17435 24275,17435 24288,17435 24300,17435 24326,17435 24338,17435 24351,17435 24363,17435 24376,17435 24401,17435 24414,17435 24427,17435 24439,17435 24464,17435 24477,17435 24490,17435 24502,17435 24527,17435 24540,17435 24553,17435 24565,17435 24578,17435 24603,17435 24616,17435 24628,17435 24641,17435 24666,17435 24679,17435 24692,17435 24704,17435 24729,17435 24742,17435 24755,17435 24767,17435 24780,17435 24805,17435 24818,17435 24830,17435 24843,17435 24868,17435 24881,17435 24893,17435 24906,17435 24919,17435 24944,17435 24956,17435 24969,17435 24982,17435 25007,17435 25020,17435 25032,17435 25045,17435 25070,17435 25083,17435 25095,17435 25108,17435 25121,17435 25146,17435 25158,17435 25171,17435 25184,17435 25209,17435 25221,17435 25234,17435 25247,17435 25272,17435 25285,17435 25297,17435 25310,17435 25322,17435 25348,17435 25360,17435 25373,17435 25385,17435 25411,17435 25423,17435 25436,17435 25449,17435 25474,17435 25486,17435 25499,17435 25512,17435 25524,17435 25550,17435 25562,17435 25575,17435 25587,17435 25613,17435 25625,17435 25638,17435 25650,17435 25676,17435 25688,17435 25701,17435 25714,17435 25726,17435 25751,17435 25764,17435 25777,17435 25789,17435 25814,17435 25827,17435 25840,17435 25852,17435 25878,17435 25890,17435 25903,17435 25915,17435 25928,17435 25953,17435 25966,17435 25979,17435 25991,17435 26016,17435 26029,17435 26042,17435 26054,17435 26079,17435 26092,17435 26105,17435 26117,17435 26130,17435 26155,17435 26168,17435 26180,17435 26193,17435 26218,17435 26231,17435 26243,17435 26256,17435 26281,17435 26294,17435 26307,17435 26319,17435 26332,17435 26357,17435 26370,17435 26382,17435 26395,17435 26420,17435 26433,17435 26445,17435 26458,17435 26483,17435 26496,17435 26508,17435 26521,17435 26534,17435 26559,17435 26572,17435 26584,17435 26597,17435 26622,17435 26635,17435 26647,17435 26660,17435 26673,17435"
   id="path262" />
 <path
   id="path264"
   style="fill:none;fill-opacity:1;stroke:#ff0000;stroke-width:80.01;stroke-miterlimit:4;stroke-dasharray:80.01, 80.01;stroke-dashoffset:0;stroke-opacity:1"
   d="m 1451,17435 h 12592 m 13,-10179 h 6295 m 13,10179 h 6309"
   sodipodi:nodetypes="cccccc" />
 <path
   id="path266"
   d="m 1451,17435 h 6271 m 25,-12389 h 12604 m 13,12389 h 6309"
   style="fill:none;stroke:#00a933;stroke-width:80.01;stroke-miterlimit:4;stroke-dasharray:80.01, 80.01;stroke-dashoffset:0;stroke-opacity:1"
   sodipodi:nodetypes="cccccc" />
 <path
   id="path268"
   d="m 1451,5046 h 6271 m 37,7098 h 6284 m 13,5291 h 12617"
   style="fill:none;stroke:#2a6099;stroke-width:80.01;stroke-miterlimit:4;stroke-dasharray:80.01, 80.01;stroke-dashoffset:0;stroke-opacity:1"
   sodipodi:nodetypes="cccccc" />
 <path
   id="path270"
   d="m 1451,12747 h 12592 m 13,-12388 h 6295 m 25,17076 h 6297"
   style="fill:none;stroke:#ff0000;stroke-width:80.01;stroke-miterlimit:4;stroke-dasharray:80.01, 80.01;stroke-dashoffset:0;stroke-opacity:1"
   sodipodi:nodetypes="cccccc" />
 <path
   id="path272"
   d="m 1451,8596 h 6271 m 37,-8237 h 12592 m 25,17076 h 6297"
   style="fill:none;stroke:#00a933;stroke-width:80.01;stroke-miterlimit:4;stroke-dasharray:80.01, 80.01;stroke-dashoffset:0;stroke-opacity:1"
   sodipodi:nodetypes="cccccc" />
 <path
   style="fill:none;stroke:#2a6099;stroke-width:80.01;stroke-miterlimit:4;stroke-dasharray:80.01, 80.01;stroke-dashoffset:0;stroke-opacity:1"
   d="m 1451,359 h 6271 m 37,2410 h 6284 m 13,9978 h 6295 m 25,4688 h 6297"
   id="path274"
   sodipodi:nodetypes="cccccccc" />
 <text
   class="TextShape"
   id="text282"><tspan
     class="TextParagraph"
     font-family="Liberation Sans, sans-serif"
     font-size="353px"
     font-weight="400"
     id="tspan280"><tspan
       class="TextPosition"
       x="1008"
       y="17562"
       id="tspan278"><tspan
         fill="rgb(0,0,0)"
         stroke="none"
         id="tspan276">0</tspan></tspan></tspan></text>
 <text
   class="TextShape"
   id="text290"><tspan
     class="TextParagraph"
     font-family="Liberation Sans, sans-serif"
     font-size="353px"
     font-weight="400"
     id="tspan288"><tspan
       class="TextPosition"
       x="814"
       y="14213"
       id="tspan286"><tspan
         fill="rgb(0,0,0)"
         stroke="none"
         id="tspan284">50</tspan></tspan></tspan></text>
 <text
   class="TextShape"
   id="text298"><tspan
     class="TextParagraph"
     font-family="Liberation Sans, sans-serif"
     font-size="353px"
     font-weight="400"
     id="tspan296"><tspan
       class="TextPosition"
       x="621"
       y="10865"
       id="tspan294"><tspan
         fill="rgb(0,0,0)"
         stroke="none"
         id="tspan292">100</tspan></tspan></tspan></text>
 <text
   class="TextShape"
   id="text306"><tspan
     class="TextParagraph"
     font-family="Liberation Sans, sans-serif"
     font-size="353px"
     font-weight="400"
     id="tspan304"><tspan
       class="TextPosition"
       x="621"
       y="7516"
       id="tspan302"><tspan
         fill="rgb(0,0,0)"
         stroke="none"
         id="tspan300">150</tspan></tspan></tspan></text>
 <text
   class="TextShape"
   id="text314"><tspan
     class="TextParagraph"
     font-family="Liberation Sans, sans-serif"
     font-size="353px"
     font-weight="400"
     id="tspan312"><tspan
       class="TextPosition"
       x="621"
       y="4168"
       id="tspan310"><tspan
         fill="rgb(0,0,0)"
         stroke="none"
         id="tspan308">200</tspan></tspan></tspan></text>
 <text
   class="TextShape"
   id="text322"><tspan
     class="TextParagraph"
     font-family="Liberation Sans, sans-serif"
     font-size="353px"
     font-weight="400"
     id="tspan320"><tspan
       class="TextPosition"
       x="621"
       y="819"
       id="tspan318"><tspan
         fill="rgb(0,0,0)"
         stroke="none"
         id="tspan316">250</tspan></tspan></tspan></text>
 <path
   fill="none"
   stroke="#ff0000"
   stroke-width="80"
   stroke-linejoin="round"
   d="m 26879.83,6922 h 1600"
   id="path324" />
 <path
   fill="none"
   stroke="#00a933"
   stroke-width="80"
   stroke-linejoin="round"
   d="m 26879.83,7442 h 1600"
   id="path326" />
 <path
   fill="none"
   stroke="#2a6099"
   stroke-width="80"
   stroke-linejoin="round"
   d="m 26879.83,7962 h 1600"
   id="path328" />
 <path
   fill="none"
   stroke="#ff0000"
   stroke-width="80"
   stroke-linejoin="round"
   stroke-dasharray="80, 80"
   d="m 26879.83,8482 h 1600"
   id="path330" />
 <path
   fill="none"
   stroke="#00a933"
   stroke-width="80"
   stroke-linejoin="round"
   stroke-dasharray="80, 80"
   d="m 26879.83,9002 h 1600"
   id="path332" />
 <path
   fill="none"
   stroke="#2a6099"
   stroke-width="80"
   stroke-linejoin="round"
   stroke-dasharray="80, 80"
   d="m 26879.83,9521 h 1600"
   id="path334" />
 
 
 
 <text
   class="TextShape"
   id="text348"
   x="-529.16663"><tspan
     class="TextParagraph"
     font-family="'Liberation Sans', sans-serif"
     font-size="353px"
     font-weight="400"
     id="tspan346"><tspan
       class="TextPosition"
       x="28579.84"
       y="7048"
       id="tspan344"><tspan
         fill="#000000"
         stroke="none"
         id="tspan342">red</tspan></tspan></tspan></text>
 <text
   class="TextShape"
   id="text356"
   x="-529.16663"><tspan
     class="TextParagraph"
     font-family="'Liberation Sans', sans-serif"
     font-size="353px"
     font-weight="400"
     id="tspan354"><tspan
       class="TextPosition"
       x="28579.84"
       y="7568"
       id="tspan352"><tspan
         fill="#000000"
         stroke="none"
         id="tspan350">green</tspan></tspan></tspan></text>
 <text
   class="TextShape"
   id="text364"
   x="-529.16663"><tspan
     class="TextParagraph"
     font-family="'Liberation Sans', sans-serif"
     font-size="353px"
     font-weight="400"
     id="tspan362"><tspan
       class="TextPosition"
       x="28579.84"
       y="8088"
       id="tspan360"><tspan
         fill="#000000"
         stroke="none"
         id="tspan358">blue</tspan></tspan></tspan></text>
 <text
   class="TextShape"
   id="text372"
   x="-529.16663"><tspan
     class="TextParagraph"
     font-family="'Liberation Sans', sans-serif"
     font-size="353px"
     font-weight="400"
     id="tspan370"><tspan
       class="TextPosition"
       x="28579.84"
       y="8608"
       id="tspan368"><tspan
         fill="#000000"
         stroke="none"
         id="tspan366">red_bounds</tspan></tspan></tspan></text>
 <text
   class="TextShape"
   id="text380"
   x="-529.16663"><tspan
     class="TextParagraph"
     font-family="'Liberation Sans', sans-serif"
     font-size="353px"
     font-weight="400"
     id="tspan378"><tspan
       class="TextPosition"
       x="28579.84"
       y="9127"
       id="tspan376"><tspan
         fill="#000000"
         stroke="none"
         id="tspan374">green_bounds</tspan></tspan></tspan></text>
 <text
   class="TextShape"
   id="text388"
   x="-529.16663"><tspan
     class="TextParagraph"
     font-family="'Liberation Sans', sans-serif"
     font-size="353px"
     font-weight="400"
     id="tspan386"><tspan
       class="TextPosition"
       x="28579.84"
       y="9647"
       id="tspan384"><tspan
         fill="#000000"
         stroke="none"
         id="tspan382">blue_bounds</tspan></tspan></tspan></text>
 
 
 
<text
   xml:space="preserve"
   id="text1253"
   style="line-height:1.25;font-family:sans-serif;font-size:1058.33333874px;letter-spacing:0px;white-space:pre;shape-inside:url(#rect1255);" /></svg>
