<?xml version="1.0" encoding="UTF-8"?>
<!DOCTYPE svg PUBLIC "-//W3C//DTD SVG 1.1//EN" "http://www.w3.org/Graphics/SVG/1.1/DTD/svg11.dtd">
<svg width="323mm" height="159mm" viewBox="0 0 32300 15900" version="1.1" xmlns="http://www.w3.org/2000/svg" xmlns:xlink="http://www.w3.org/1999/xlink" stroke-width="28.222" stroke-linejoin="round" xml:space="preserve">
 <path fill="rgb(255,255,255)" stroke="none" d="M 16134,15917 L 0,15917 0,0 32267,0 32267,15917 16134,15917 Z"/>
 <path fill="none" stroke="rgb(179,179,179)" stroke-linejoin="round" d="M 16549,15389 L 1476,15389 1476,318 31622,318 31622,15389 16549,15389 Z"/>
 <path fill="none" stroke="rgb(179,179,179)" stroke-linejoin="round" d="M 31622,15388 L 1476,15388"/>
 <path fill="none" stroke="rgb(179,179,179)" stroke-linejoin="round" d="M 31622,12432 L 1476,12432"/>
 <path fill="none" stroke="rgb(179,179,179)" stroke-linejoin="round" d="M 31622,9477 L 1476,9477"/>
 <path fill="none" stroke="rgb(179,179,179)" stroke-linejoin="round" d="M 31622,6523 L 1476,6523"/>
 <path fill="none" stroke="rgb(179,179,179)" stroke-linejoin="round" d="M 31622,3567 L 1476,3567"/>
 <path fill="none" stroke="rgb(179,179,179)" stroke-linejoin="round" d="M 31622,612 L 1476,612"/>
 <path fill="none" stroke="rgb(179,179,179)" stroke-linejoin="round" d="M 1476,15388 L 31622,15388"/>
 <path fill="none" stroke="rgb(179,179,179)" stroke-linejoin="round" d="M 1326,15388 L 1476,15388"/>
 <path fill="none" stroke="rgb(179,179,179)" stroke-linejoin="round" d="M 1326,15388 L 1476,15388"/>
 <path fill="none" stroke="rgb(179,179,179)" stroke-linejoin="round" d="M 1326,12432 L 1476,12432"/>
 <path fill="none" stroke="rgb(179,179,179)" stroke-linejoin="round" d="M 1326,12432 L 1476,12432"/>
 <path fill="none" stroke="rgb(179,179,179)" stroke-linejoin="round" d="M 1326,9477 L 1476,9477"/>
 <path fill="none" stroke="rgb(179,179,179)" stroke-linejoin="round" d="M 1326,9477 L 1476,9477"/>
 <path fill="none" stroke="rgb(179,179,179)" stroke-linejoin="round" d="M 1326,6523 L 1476,6523"/>
 <path fill="none" stroke="rgb(179,179,179)" stroke-linejoin="round" d="M 1326,6523 L 1476,6523"/>
 <path fill="none" stroke="rgb(179,179,179)" stroke-linejoin="round" d="M 1326,3567 L 1476,3567"/>
 <path fill="none" stroke="rgb(179,179,179)" stroke-linejoin="round" d="M 1326,3567 L 1476,3567"/>
 <path fill="none" stroke="rgb(179,179,179)" stroke-linejoin="round" d="M 1326,612 L 1476,612"/>
 <path fill="none" stroke="rgb(179,179,179)" stroke-linejoin="round" d="M 1326,612 L 1476,612"/>
 <path fill="none" stroke="rgb(179,179,179)" stroke-linejoin="round" d="M 1476,15388 L 1476,316"/>
 <path fill="none" stroke="rgb(255,0,0)" stroke-width="80" stroke-linejoin="round" d="M 1476,15328 L 1491,15269 1506,15328 1521,15388 1536,15388 1566,15388 1581,15328 1596,15388 1626,15328 1641,15388 1656,15388 1672,15328 1687,15388 1702,15328 1717,15388 1732,15388 1747,15328 1762,15388 1792,15388 1822,15388 1853,15328 1868,15388 1883,15328 1898,15269 1913,15328 1928,15269 1943,15328 1958,15388 1988,15388 2018,15328 2033,15269 2049,15328 2064,15388 2079,15328 2094,15269 2109,15328 2124,15388 2154,15328 2169,15269 2184,15210 2199,15151 2214,15092 2230,15033 2245,14974 2260,14915 2275,14974 2290,14915 2305,14974 2320,14915 2335,14856 2350,14796 2365,14856 2380,14796 2395,14856 2411,14915 2426,14856 2441,14796 2456,14856 2471,14796 2486,14737 2501,14796 2516,14856 2531,14796 2546,14856 2561,14796 2576,14856 2591,14915 2607,14856 2622,14915 2637,14974 2652,14915 2667,14856 2682,14796 2697,14737 2712,14678 2727,14737 2742,14796 2757,14737 2772,14796 2788,14856 2803,14915 2818,14974 2833,15033 2848,15092 2863,15151 2878,15210 2893,15269 2908,15328 2923,15388 2938,15328 2953,15388 2969,15388 2999,15388 3014,15328 3029,15269 3044,15210 3059,15151 3074,15210 3089,15151 3104,15092 3119,15033 3134,14974 3149,15033 3165,14974 3180,14915 3195,14856 3210,14796 3225,14856 3240,14796 3255,14856 3270,14915 3285,14856 3300,14796 3315,14856 3330,14796 3346,14856 3361,14915 3376,14856 3391,14915 3406,14974 3421,14915 3436,14856 3451,14915 3466,14856 3481,14796 3496,14856 3511,14915 3527,14856 3542,14796 3557,14856 3572,14915 3587,14974 3602,14915 3617,14856 3632,14915 3647,14974 3662,15033 3677,15092 3692,15151 3707,15092 3723,15151 3738,15092 3753,15151 3768,15092 3783,15033 3798,15092 3813,15033 3828,15092 3843,15033 3858,14974 3873,14915 3888,14974 3904,15033 3919,14974 3934,14915 3949,14974 3964,14915 3979,14856 3994,14796 4009,14856 4024,14915 4039,14856 4054,14796 4069,14737 4085,14678 4100,14619 4115,14678 4130,14737 4145,14796 4160,14856 4175,14796 4190,14737 4205,14796 4220,14856 4235,14915 4250,14856 4265,14796 4281,14856 4296,14796 4311,14856 4326,14796 4341,14856 4356,14915 4371,14856 4386,14796 4401,14737 4416,14678 4431,14737 4446,14678 4462,14619 4477,14560 4492,14501 4507,14442 4522,14501 4537,14442 4552,14383 4567,14324 4582,14264 4597,14324 4612,14383 4627,14324 4643,14264 4658,14324 4673,14383 4688,14324 4703,14383 4718,14442 4733,14383 4748,14324 4763,14264 4778,14205 4793,14264 4808,14205 4823,14264 4839,14205 4854,14146 4869,14087 4884,14146 4899,14205 4914,14264 4929,14205 4944,14146 4959,14087 4974,14028 4989,13969 5004,14028 5020,13969 5035,13910 5050,13851 5065,13792 5080,13851 5095,13792 5110,13851 5125,13910 5140,13851 5155,13910 5170,13851 5185,13910 5201,13851 5216,13910 5231,13969 5246,14028 5261,13969 5276,13910 5291,13969 5306,14028 5321,14087 5336,14146 5351,14205 5366,14264 5381,14205 5397,14146 5412,14087 5427,14028 5442,13969 5457,13910 5472,13851 5487,13910 5502,13969 5517,13910 5532,13969 5547,13910 5562,13851 5578,13792 5593,13851 5608,13910 5623,13969 5638,14028 5653,14087 5668,14146 5683,14087 5698,14028 5713,13969 5728,13910 5743,13969 5759,13910 5774,13851 5789,13792 5804,13851 5819,13910 5834,13851 5849,13792 5864,13733 5879,13792 5894,13733 5909,13792 5924,13733 5939,13792 5955,13733 5970,13792 5985,13851 6000,13792 6015,13733 6030,13673 6045,13733 6060,13673 6075,13733 6090,13673 6105,13614 6120,13555 6136,13496 6151,13437 6166,13496 6181,13437 6196,13496 6211,13437 6226,13496 6241,13555 6256,13496 6271,13555 6286,13614 6301,13555 6317,13496 6332,13437 6347,13496 6362,13555 6377,13496 6392,13437 6407,13496 6422,13555 6437,13614 6452,13673 6467,13614 6482,13673 6497,13733 6513,13792 6528,13733 6543,13792 6558,13851 6573,13910 6588,13969 6603,14028 6618,14087 6633,14146 6648,14087 6663,14146 6678,14205 6694,14146 6709,14205 6724,14264 6739,14324 6754,14264 6769,14324 6784,14264 6799,14324 6814,14383 6829,14324 6844,14383 6859,14442 6875,14383 6890,14324 6905,14264 6920,14205 6935,14146 6950,14205 6965,14146 6980,14087 6995,14028 7010,13969 7025,14028 7040,14087 7055,14028 7071,14087 7086,14028 7101,14087 7116,14146 7131,14205 7146,14146 7161,14205 7176,14146 7191,14087 7206,14146 7221,14087 7236,14146 7252,14087 7267,14028 7282,14087 7297,14028 7312,14087 7327,14146 7342,14087 7357,14028 7372,14087 7387,14146 7402,14087 7417,14028 7433,13969 7448,14028 7463,14087 7478,14028 7493,13969 7508,14028 7523,14087 7538,14146 7553,14205 7568,14264 7583,14324 7598,14264 7613,14205 7629,14146 7644,14205 7659,14146 7674,14205 7689,14146 7704,14205 7719,14264 7734,14324 7749,14383 7764,14324 7779,14264 7794,14324 7810,14383 7825,14442 7840,14383 7855,14442 7870,14383 7885,14442 7900,14383 7915,14324 7930,14383 7945,14442 7960,14501 7975,14442 7991,14383 8006,14442 8021,14383 8036,14442 8051,14501 8066,14442 8081,14383 8096,14324 8111,14383 8126,14324 8141,14383 8156,14324 8171,14383 8187,14442 8202,14383 8217,14442 8232,14501 8247,14442 8262,14501 8277,14442 8292,14501 8307,14560 8322,14619 8337,14560 8352,14619 8368,14678 8383,14737 8398,14678 8413,14737 8428,14796 8443,14856 8458,14796 8473,14737 8488,14796 8503,14856 8518,14796 8533,14856 8549,14915 8564,14856 8579,14915 8594,14974 8609,15033 8624,15092 8639,15033 8654,15092 8669,15033 8684,14974 8699,14915 8714,14856 8729,14915 8745,14856 8760,14915 8775,14856 8790,14915 8805,14974 8820,14915 8835,14856 8850,14915 8865,14974 8880,14915 8895,14974 8910,14915 8926,14856 8941,14796 8956,14737 8971,14678 8986,14737 9001,14796 9016,14856 9031,14915 9046,14856 9061,14915 9076,14974 9091,14915 9107,14974 9122,15033 9137,14974 9152,15033 9167,15092 9182,15033 9197,14974 9212,14915 9227,14856 9242,14915 9257,14856 9272,14915 9287,14974 9303,15033 9318,15092 9333,15151 9348,15210 9363,15151 9378,15092 9393,15151 9408,15092 9423,15033 9438,15092 9453,15033 9468,15092 9484,15151 9499,15210 9514,15269 9529,15328 9544,15388 9559,15388 9589,15388 9604,15388 9634,15388 9649,15328 9665,15269 9680,15328 9695,15269 9710,15210 9725,15269 9740,15210 9755,15269 9770,15328 9785,15388 9800,15388 9815,15328 9830,15269 9845,15328 9861,15388 9876,15328 9891,15269 9906,15210 9921,15151 9936,15092 9951,15033 9966,15092 9981,15033 9996,14974 10011,14915 10026,14856 10042,14796 10057,14856 10072,14796 10087,14737 10102,14678 10117,14619 10132,14560 10147,14619 10162,14678 10177,14619 10192,14678 10207,14619 10223,14678 10238,14619 10253,14560 10268,14619 10283,14560 10298,14501 10313,14560 10328,14619 10343,14560 10358,14619 10373,14678 10388,14737 10403,14796 10419,14856 10434,14796 10449,14856 10464,14796 10479,14737 10494,14678 10509,14737 10524,14796 10539,14856 10554,14915 10569,14856 10584,14796 10600,14856 10615,14796 10630,14737 10645,14796 10660,14856 10675,14796 10690,14737 10705,14678 10720,14737 10735,14678 10750,14737 10765,14796 10781,14856 10796,14796 10811,14856 10826,14915 10841,14856 10856,14915 10871,14856 10886,14796 10901,14856 10916,14796 10931,14856 10946,14796 10961,14737 10977,14796 10992,14737 11007,14678 11022,14737 11037,14796 11052,14856 11067,14915 11082,14856 11097,14796 11112,14737 11127,14678 11142,14619 11158,14560 11173,14501 11188,14442 11203,14383 11218,14324 11233,14383 11248,14324 11263,14383 11278,14442 11293,14383 11308,14324 11323,14383 11339,14442 11354,14501 11369,14560 11384,14619 11399,14678 11414,14619 11429,14678 11444,14619 11459,14560 11474,14501 11489,14560 11504,14501 11519,14560 11535,14501 11550,14442 11565,14501 11580,14442 11595,14501 11610,14442 11625,14383 11640,14442 11655,14383 11670,14442 11685,14383 11700,14442 11716,14501 11731,14560 11746,14501 11761,14442 11776,14383 11791,14324 11806,14383 11821,14442 11836,14383 11851,14442 11866,14383 11881,14324 11896,14383 11912,14442 11927,14383 11942,14442 11957,14383 11972,14442 11987,14501 12002,14560 12017,14501 12032,14442 12047,14501 12062,14560 12077,14619 12093,14560 12108,14619 12123,14560 12138,14501 12153,14442 12168,14383 12183,14442 12198,14501 12213,14560 12228,14501 12243,14442 12258,14501 12274,14442 12289,14501 12304,14560 12319,14619 12334,14678 12349,14619 12364,14560 12379,14619 12394,14560 12409,14619 12424,14678 12439,14619 12454,14560 12470,14619 12485,14560 12500,14619 12515,14560 12530,14501 12545,14560 12560,14501 12575,14442 12590,14383 12605,14324 12620,14383 12635,14442 12651,14501 12666,14442 12681,14501 12696,14560 12711,14501 12726,14442 12741,14501 12756,14560 12771,14501 12786,14442 12801,14383 12816,14324 12832,14264 12847,14324 12862,14383 12877,14442 12892,14383 12907,14442 12922,14501 12937,14442 12952,14501 12967,14560 12982,14619 12997,14560 13012,14501 13028,14442 13043,14383 13058,14442 13073,14501 13088,14560 13103,14501 13118,14560 13133,14619 13148,14678 13163,14737 13178,14678 13193,14737 13209,14678 13224,14619 13239,14560 13254,14619 13269,14678 13284,14619 13299,14560 13314,14619 13329,14560 13344,14619 13359,14678 13374,14619 13390,14560 13405,14619 13420,14678 13435,14737 13450,14678 13465,14737 13480,14796 13495,14737 13510,14796 13525,14737 13540,14678 13555,14619 13570,14560 13586,14501 13601,14560 13616,14619 13631,14560 13646,14619 13661,14678 13676,14737 13691,14678 13706,14619 13721,14678 13736,14619 13751,14560 13767,14501 13782,14442 13797,14501 13812,14442 13827,14383 13842,14442 13857,14383 13872,14442 13887,14501 13902,14442 13917,14383 13932,14324 13948,14264 13963,14205 13978,14146 13993,14205 14008,14146 14023,14205 14038,14264 14053,14205 14068,14146 14083,14087 14098,14028 14113,14087 14128,14028 14144,13969 14159,13910 14174,13851 14189,13792 14204,13733 14219,13792 14234,13733 14249,13673 14264,13614 14279,13555 14294,13496 14309,13437 14325,13496 14340,13555 14355,13614 14370,13673 14385,13614 14400,13673 14415,13733 14430,13792 14445,13733 14460,13792 14475,13851 14490,13792 14506,13851 14521,13910 14536,13969 14551,14028 14566,14087 14581,14146 14596,14205 14611,14146 14626,14205 14641,14146 14656,14205 14671,14146 14686,14087 14702,14146 14717,14205 14732,14264 14747,14205 14762,14264 14777,14324 14792,14264 14807,14324 14822,14383 14837,14442 14852,14501 14867,14560 14883,14619 14898,14560 14913,14501 14928,14560 14943,14619 14958,14560 14973,14619 14988,14678 15003,14737 15018,14678 15033,14737 15048,14796 15064,14737 15079,14678 15094,14737 15109,14678 15124,14619 15139,14678 15154,14737 15169,14796 15184,14856 15199,14796 15214,14737 15229,14678 15244,14619 15260,14560 15275,14501 15290,14560 15305,14619 15320,14678 15335,14619 15350,14560 15365,14501 15380,14442 15395,14383 15410,14324 15425,14264 15441,14205 15456,14264 15471,14205 15486,14264 15501,14324 15516,14383 15531,14442 15546,14501 15561,14560 15576,14501 15591,14560 15606,14501 15622,14560 15637,14619 15652,14560 15667,14501 15682,14442 15697,14501 15712,14442 15727,14501 15742,14442 15757,14383 15772,14442 15787,14383 15802,14442 15818,14501 15833,14442 15848,14501 15863,14560 15878,14619 15893,14678 15908,14619 15923,14678 15938,14737 15953,14678 15968,14737 15983,14796 15999,14737 16014,14678 16029,14619 16044,14560 16059,14619 16074,14560 16089,14501 16104,14442 16119,14501 16134,14560 16148,14501 16163,14442 16179,14501 16194,14442 16209,14501 16224,14560 16239,14501 16254,14442 16269,14501 16284,14560 16299,14619 16314,14560 16329,14501 16344,14560 16359,14619 16375,14560 16390,14501 16405,14442 16420,14501 16435,14442 16450,14501 16465,14442 16480,14501 16495,14442 16510,14501 16525,14442 16540,14383 16556,14324 16571,14264 16586,14205 16601,14146 16616,14087 16631,14028 16646,13969 16661,13910 16676,13851 16691,13792 16706,13733 16721,13673 16737,13614 16752,13555 16767,13496 16782,13437 16797,13378 16812,13319 16827,13260 16842,13201 16857,13141 16872,13082 16887,13023 16902,12964 16917,12905 16933,12846 16948,12787 16963,12728 16978,12669 16993,12610 17008,12550 17023,12491 17038,12432 17053,12373 17068,12314 17083,12255 17098,12196 17114,12137 17129,12078 17144,12018 17159,11959 17174,11900 17189,11841 17204,11782 17219,11723 17234,11664 17249,11605 17264,11546 17279,11487 17295,11427 17310,11368 17325,11309 17340,11250 17355,11191 17370,11132 17385,11073 17400,11014 17415,10955 17430,10895 17445,10836 17460,10777 17475,10718 17491,10659 17506,10600 17521,10541 17536,10482 17551,10423 17566,10364 17581,10304 17596,10245 17611,10186 17626,10127 17641,10068 17656,10009 17672,9950 17687,9891 17702,9832 17717,9772 17732,9713 17747,9654 17762,9595 17777,9536 17792,9477 17807,9418 17822,9359 17837,9300 17853,9240 17868,9181 17883,9122 17898,9063 17913,9004 17928,8945 17943,8886 17958,8827 17973,8768 17988,8709 18003,8649 18018,8590 18033,8531 18049,8472 18064,8413 18079,8354 18094,8295 18109,8236 18124,8177 18139,8117 18154,8058 18169,7999 18184,7941 18199,7882 18214,7823 18230,7764 18245,7705 18260,7646 18275,7587 18290,7527 18305,7468 18320,7409 18335,7350 18350,7291 18365,7232 18380,7173 18395,7114 18411,7055 18426,6995 18441,6936 18456,6877 18471,6818 18486,6759 18501,6700 18516,6641 18531,6582 18546,6523 18561,6464 18576,6404 18591,6345 18607,6286 18622,6227 18637,6286 18652,6345 18667,6404 18682,6345 18697,6404 18712,6345 18727,6286 18742,6227 18757,6286 18772,6227 18788,6286 18803,6227 18818,6168 18833,6227 18848,6286 18863,6345 18878,6286 18893,6345 18908,6286 18923,6345 18938,6404 18953,6345 18969,6286 18984,6227 18999,6168 19014,6227 19029,6168 19044,6109 19059,6168 19074,6109 19089,6050 19104,6109 19119,6168 19134,6109 19149,6050 19165,6109 19180,6168 19195,6109 19210,6050 19225,6109 19240,6168 19255,6109 19270,6168 19285,6109 19300,6168 19315,6227 19330,6286 19346,6227 19361,6286 19376,6345 19391,6404 19406,6345 19421,6404 19436,6345 19451,6286 19466,6227 19481,6286 19496,6345 19511,6286 19527,6227 19542,6168 19557,6109 19572,6050 19587,5991 19602,6050 19617,5991 19632,6050 19647,5991 19662,5932 19677,5991 19692,5932 19707,5872 19723,5932 19738,5872 19753,5813 19768,5754 19783,5813 19798,5872 19813,5813 19828,5754 19843,5695 19858,5636 19873,5695 19888,5754 19904,5813 19919,5754 19934,5695 19949,5636 19964,5577 19979,5518 19994,5459 20009,5400 20024,5340 20039,5400 20054,5340 20069,5281 20085,5222 20100,5163 20115,5104 20130,5163 20145,5222 20160,5163 20175,5104 20190,5163 20205,5104 20220,5045 20235,5104 20250,5045 20265,5104 20281,5045 20296,4986 20311,5045 20326,5104 20341,5045 20356,5104 20371,5045 20386,4986 20401,4927 20416,4986 20431,5045 20446,5104 20462,5163 20477,5104 20492,5163 20507,5104 20522,5163 20537,5104 20552,5163 20567,5222 20582,5281 20597,5340 20612,5281 20627,5222 20643,5163 20658,5104 20673,5045 20688,5104 20703,5163 20718,5104 20733,5045 20748,5104 20763,5163 20778,5222 20793,5163 20808,5104 20823,5163 20839,5104 20854,5163 20869,5104 20884,5045 20899,5104 20914,5045 20929,4986 20944,5045 20959,4986 20974,5045 20989,5104 21004,5163 21020,5104 21035,5045 21050,4986 21065,5045 21080,5104 21095,5163 21110,5104 21125,5163 21140,5222 21155,5163 21170,5104 21185,5163 21201,5222 21216,5281 21231,5222 21246,5281 21261,5222 21276,5163 21291,5104 21306,5163 21321,5104 21336,5045 21351,4986 21366,4927 21381,4986 21397,4927 21412,4986 21427,5045 21442,5104 21457,5163 21472,5222 21487,5163 21502,5222 21517,5281 21532,5340 21547,5281 21562,5340 21578,5281 21593,5340 21608,5281 21623,5222 21638,5163 21653,5104 21668,5163 21683,5222 21698,5281 21713,5222 21728,5163 21743,5104 21758,5045 21774,4986 21789,4927 21804,4868 21819,4927 21834,4986 21849,5045 21864,4986 21879,4927 21894,4868 21909,4927 21924,4986 21939,4927 21955,4868 21970,4927 21985,4986 22000,5045 22015,5104 22030,5163 22045,5222 22060,5281 22075,5222 22090,5281 22105,5222 22120,5281 22136,5222 22151,5163 22166,5222 22181,5163 22196,5222 22211,5163 22226,5104 22241,5045 22256,5104 22271,5045 22286,4986 22301,5045 22316,4986 22332,4927 22347,4986 22362,4927 22377,4868 22392,4809 22407,4749 22422,4690 22437,4631 22452,4572 22467,4513 22482,4454 22497,4513 22513,4572 22528,4513 22543,4572 22558,4631 22573,4572 22588,4513 22603,4572 22618,4631 22633,4690 22648,4749 22663,4809 22678,4868 22694,4927 22709,4868 22724,4927 22739,4868 22754,4927 22769,4986 22784,4927 22799,4868 22814,4927 22829,4986 22844,4927 22859,4986 22874,5045 22890,4986 22905,5045 22920,5104 22935,5163 22950,5222 22965,5163 22980,5222 22995,5163 23010,5222 23025,5163 23040,5104 23055,5163 23071,5222 23086,5281 23101,5340 23116,5281 23131,5340 23146,5400 23161,5459 23176,5518 23191,5577 23206,5636 23221,5695 23236,5754 23252,5695 23267,5636 23282,5577 23297,5636 23312,5695 23327,5636 23342,5577 23357,5518 23372,5577 23387,5518 23402,5577 23417,5636 23432,5695 23448,5636 23463,5695 23478,5636 23493,5577 23508,5636 23523,5577 23538,5518 23553,5577 23568,5518 23583,5459 23598,5518 23613,5577 23629,5518 23644,5577 23659,5518 23674,5577 23689,5518 23704,5459 23719,5400 23734,5459 23749,5400 23764,5459 23779,5518 23794,5577 23810,5518 23825,5577 23840,5636 23855,5695 23870,5636 23885,5577 23900,5518 23915,5459 23930,5400 23945,5340 23960,5400 23975,5459 23990,5400 24006,5459 24021,5400 24036,5459 24051,5518 24066,5459 24081,5400 24096,5459 24111,5518 24126,5577 24141,5636 24156,5695 24171,5754 24187,5813 24202,5872 24217,5932 24232,5991 24247,6050 24262,6109 24277,6168 24292,6227 24307,6286 24322,6345 24337,6404 24352,6464 24368,6523 24383,6582 24398,6641 24413,6700 24428,6759 24443,6818 24458,6877 24473,6936 24488,6995 24503,7055 24518,7114 24533,7173 24548,7232 24564,7291 24579,7350 24594,7409 24609,7468 24624,7527 24639,7587 24654,7646 24669,7705 24684,7764 24699,7823 24714,7882 24729,7941 24745,7999 24760,8058 24775,8117 24790,8177 24805,8236 24820,8295 24835,8354 24850,8413 24865,8472 24880,8531 24895,8590 24910,8649 24926,8709 24941,8768 24956,8827 24971,8886 24986,8945 25001,9004 25016,9063 25031,9122 25046,9181 25061,9240 25076,9300 25091,9359 25106,9418 25122,9477 25137,9536 25152,9595 25167,9654 25182,9713 25197,9772 25212,9832 25227,9891 25242,9950 25257,10009 25272,10068 25287,10127 25303,10186 25318,10245 25333,10304 25348,10364 25363,10423 25378,10482 25393,10541 25408,10600 25423,10659 25438,10718 25453,10777 25468,10836 25484,10895 25499,10955 25514,11014 25529,11073 25544,11132 25559,11191 25574,11250 25589,11309 25604,11368 25619,11427 25634,11487 25649,11546 25664,11605 25680,11664 25695,11723 25710,11782 25725,11841 25740,11900 25755,11959 25770,12018 25785,12078 25800,12137 25815,12196 25830,12255 25845,12314 25861,12373 25876,12432 25891,12491 25906,12550 25921,12610 25936,12669 25951,12728 25966,12787 25981,12846 25996,12905 26011,12964 26026,13023 26042,13082 26057,13141 26072,13201 26087,13260 26102,13319 26117,13378 26132,13437 26147,13496 26162,13555 26177,13614 26192,13673 26207,13733 26222,13792 26238,13851 26253,13910 26268,13969 26283,14028 26298,14087 26313,14146 26328,14205 26343,14264 26358,14324 26373,14383 26388,14442 26403,14501 26419,14560 26434,14619 26449,14678 26464,14737 26479,14796 26494,14856 26509,14915 26524,14974 26539,15033 26554,15092 26569,15151 26584,15210 26600,15269 26615,15328 26630,15388 26645,15388 26675,15388 26705,15388 26735,15388 26765,15388 26796,15388 26826,15388 26841,15388 26871,15388 26901,15388 26931,15388 26961,15388 26992,15388 27022,15388 27052,15388 27067,15388 27097,15388 27127,15388 27158,15388 27188,15388 27218,15388 27248,15388 27263,15388 27293,15388 27323,15388 27354,15388 27384,15388 27414,15388 27444,15388 27474,15388 27489,15388 27519,15388 27550,15388 27580,15388 27610,15388 27640,15388 27670,15388 27685,15388 27716,15388 27746,15388 27776,15388 27806,15388 27836,15388 27866,15388 27881,15388 27912,15388 27942,15388 27972,15388 28002,15388 28032,15388 28062,15388 28093,15388 28108,15388 28138,15388 28168,15388 28198,15388 28228,15388 28258,15388 28289,15388 28304,15388 28334,15388 28364,15388 28394,15388 28424,15388 28454,15388 28485,15388 28515,15388 28530,15388 28560,15388 28590,15388 28620,15388 28651,15388 28681,15388 28711,15388 28726,15388 28756,15388 28786,15388 28816,15388 28847,15388 28877,15388 28907,15388 28922,15388 28952,15388 28982,15388 29012,15388 29043,15388 29073,15388 29103,15388 29133,15388 29148,15388 29178,15388 29209,15388 29239,15388 29269,15388 29299,15388 29329,15388 29344,15388 29374,15388 29405,15388 29435,15388 29465,15388 29495,15388 29525,15388 29555,15388 29570,15388 29601,15388 29631,15388 29661,15388 29691,15388 29721,15388 29751,15388 29767,15388 29797,15388 29827,15388 29857,15388 29887,15388 29917,15388 29948,15388 29963,15388 29993,15388 30023,15388 30053,15388 30083,15388 30113,15388 30144,15388 30174,15388 30189,15388 30219,15388 30249,15388 30279,15388 30309,15388 30340,15388 30370,15388 30385,15388 30415,15388 30445,15388 30475,15388 30506,15388 30536,15388 30566,15388 30596,15388 30611,15388 30641,15388 30671,15388 30702,15388 30732,15388 30762,15388 30792,15388 30807,15388 30837,15388 30867,15388 30898,15388 30928,15388 30958,15388 30988,15388 31003,15388 31033,15388 31064,15388 31094,15388 31124,15388 31154,15388 31184,15388 31214,15388 31229,15388 31260,15388 31290,15388 31320,15388 31350,15388 31380,15388 31410,15388 31425,15388 31456,15388 31486,15388 31516,15388 31546,15388 31576,15388 31606,15388 31622,15388"/>
 <path fill="none" stroke="rgb(0,169,51)" stroke-width="80" stroke-linejoin="round" d="M 1476,15388 L 1491,15328 1506,15269 1521,15210 1536,15151 1551,15092 1566,15033 1581,15092 1596,15151 1611,15210 1626,15151 1641,15210 1656,15269 1672,15328 1687,15388 1702,15388 1717,15328 1732,15269 1747,15210 1762,15269 1777,15210 1792,15269 1807,15328 1822,15388 1853,15388 1868,15328 1883,15388 1898,15388 1913,15328 1928,15388 1943,15328 1958,15388 1973,15328 1988,15269 2003,15328 2018,15269 2033,15328 2049,15269 2064,15328 2079,15388 2094,15328 2109,15388 2124,15388 2139,15328 2154,15388 2184,15388 2214,15388 2245,15328 2260,15269 2275,15328 2290,15388 2305,15388 2320,15328 2335,15388 2350,15388 2380,15328 2395,15269 2411,15328 2426,15269 2441,15210 2456,15269 2471,15328 2486,15388 2501,15328 2516,15269 2531,15210 2546,15151 2561,15210 2576,15269 2591,15328 2607,15388 2637,15328 2652,15269 2667,15328 2682,15388 2697,15388 2727,15328 2742,15269 2757,15210 2772,15151 2788,15092 2803,15033 2818,14974 2833,15033 2848,14974 2863,15033 2878,15092 2893,15151 2908,15210 2923,15151 2938,15092 2953,15151 2969,15210 2984,15151 2999,15092 3014,15033 3029,14974 3044,14915 3059,14856 3074,14796 3089,14737 3104,14678 3119,14619 3134,14560 3149,14619 3165,14560 3180,14619 3195,14560 3210,14501 3225,14442 3240,14383 3255,14324 3270,14264 3285,14205 3300,14264 3315,14324 3330,14264 3346,14324 3361,14264 3376,14324 3391,14264 3406,14205 3421,14146 3436,14087 3451,14028 3466,14087 3481,14146 3496,14205 3511,14264 3527,14324 3542,14264 3557,14205 3572,14146 3587,14205 3602,14264 3617,14324 3632,14383 3647,14442 3662,14501 3677,14442 3692,14501 3707,14442 3723,14501 3738,14560 3753,14501 3768,14560 3783,14619 3798,14678 3813,14619 3828,14560 3843,14501 3858,14560 3873,14501 3888,14560 3904,14619 3919,14560 3934,14501 3949,14442 3964,14383 3979,14324 3994,14383 4009,14442 4024,14383 4039,14442 4054,14501 4069,14442 4085,14501 4100,14442 4115,14383 4130,14324 4145,14264 4160,14205 4175,14146 4190,14087 4205,14146 4220,14087 4235,14146 4250,14205 4265,14264 4281,14324 4296,14264 4311,14324 4326,14383 4341,14442 4356,14383 4371,14324 4386,14264 4401,14205 4416,14146 4431,14205 4446,14264 4462,14205 4477,14146 4492,14205 4507,14264 4522,14324 4537,14264 4552,14324 4567,14264 4582,14324 4597,14264 4612,14205 4627,14146 4643,14087 4658,14028 4673,13969 4688,13910 4703,13969 4718,13910 4733,13969 4748,14028 4763,13969 4778,14028 4793,13969 4808,14028 4823,13969 4839,13910 4854,13969 4869,14028 4884,13969 4899,13910 4914,13969 4929,14028 4944,13969 4959,14028 4974,14087 4989,14146 5004,14205 5020,14264 5035,14324 5050,14383 5065,14324 5080,14264 5095,14205 5110,14146 5125,14087 5140,14146 5155,14087 5170,14146 5185,14087 5201,14146 5216,14087 5231,14146 5246,14087 5261,14028 5276,14087 5291,14028 5306,13969 5321,13910 5336,13969 5351,14028 5366,14087 5381,14028 5397,14087 5412,14028 5427,14087 5442,14028 5457,13969 5472,14028 5487,13969 5502,14028 5517,13969 5532,13910 5547,13851 5562,13792 5578,13851 5593,13910 5608,13969 5623,13910 5638,13969 5653,14028 5668,14087 5683,14028 5698,13969 5713,14028 5728,13969 5743,13910 5759,13851 5774,13910 5789,13969 5804,14028 5819,14087 5834,14028 5849,14087 5864,14028 5879,13969 5894,13910 5909,13969 5924,14028 5939,13969 5955,13910 5970,13851 5985,13792 6000,13733 6015,13673 6030,13733 6045,13792 6060,13733 6075,13673 6090,13733 6105,13792 6120,13851 6136,13792 6151,13851 6166,13792 6181,13733 6196,13792 6211,13851 6226,13792 6241,13733 6256,13673 6271,13614 6286,13555 6301,13496 6317,13555 6332,13496 6347,13555 6362,13614 6377,13555 6392,13496 6407,13437 6422,13496 6437,13555 6452,13614 6467,13555 6482,13614 6497,13673 6513,13614 6528,13673 6543,13614 6558,13673 6573,13614 6588,13555 6603,13614 6618,13555 6633,13496 6648,13555 6663,13614 6678,13673 6694,13614 6709,13673 6724,13733 6739,13673 6754,13733 6769,13673 6784,13733 6799,13792 6814,13851 6829,13792 6844,13851 6859,13792 6875,13851 6890,13792 6905,13851 6920,13792 6935,13733 6950,13792 6965,13851 6980,13910 6995,13851 7010,13910 7025,13851 7040,13792 7055,13851 7071,13792 7086,13851 7101,13792 7116,13851 7131,13910 7146,13851 7161,13910 7176,13969 7191,14028 7206,13969 7221,14028 7236,14087 7252,14146 7267,14205 7282,14264 7297,14324 7312,14264 7327,14205 7342,14264 7357,14205 7372,14146 7387,14205 7402,14264 7417,14324 7433,14264 7448,14324 7463,14264 7478,14324 7493,14383 7508,14324 7523,14383 7538,14442 7553,14383 7568,14442 7583,14501 7598,14560 7613,14501 7629,14442 7644,14501 7659,14442 7674,14383 7689,14324 7704,14383 7719,14442 7734,14501 7749,14560 7764,14619 7779,14678 7794,14737 7810,14678 7825,14737 7840,14796 7855,14856 7870,14796 7885,14856 7900,14915 7915,14856 7930,14796 7945,14856 7960,14796 7975,14856 7991,14915 8006,14974 8021,15033 8036,15092 8051,15033 8066,15092 8081,15151 8096,15092 8111,15033 8126,14974 8141,15033 8156,14974 8171,14915 8187,14856 8202,14796 8217,14856 8232,14796 8247,14856 8262,14796 8277,14737 8292,14796 8307,14737 8322,14796 8337,14856 8352,14796 8368,14856 8383,14796 8398,14856 8413,14796 8428,14856 8443,14915 8458,14856 8473,14796 8488,14737 8503,14796 8518,14856 8533,14915 8549,14856 8564,14796 8579,14856 8594,14915 8609,14856 8624,14915 8639,14856 8654,14915 8669,14856 8684,14915 8699,14974 8714,15033 8729,15092 8745,15151 8760,15092 8775,15033 8790,14974 8805,14915 8820,14974 8835,14915 8850,14974 8865,14915 8880,14974 8895,15033 8910,14974 8926,15033 8941,15092 8956,15033 8971,15092 8986,15033 9001,14974 9016,14915 9031,14856 9046,14796 9061,14737 9076,14678 9091,14619 9107,14560 9122,14501 9137,14442 9152,14383 9167,14324 9182,14264 9197,14205 9212,14146 9227,14087 9242,14028 9257,13969 9272,13910 9287,13851 9303,13792 9318,13733 9333,13673 9348,13614 9363,13555 9378,13496 9393,13437 9408,13378 9423,13319 9438,13260 9453,13201 9468,13141 9484,13082 9499,13023 9514,12964 9529,12905 9544,12846 9559,12787 9574,12728 9589,12669 9604,12610 9619,12550 9634,12491 9649,12432 9665,12373 9680,12314 9695,12255 9710,12196 9725,12137 9740,12078 9755,12018 9770,11959 9785,11900 9800,11841 9815,11782 9830,11723 9845,11664 9861,11605 9876,11546 9891,11487 9906,11427 9921,11368 9936,11309 9951,11250 9966,11191 9981,11132 9996,11073 10011,11014 10026,10955 10042,10895 10057,10836 10072,10777 10087,10718 10102,10659 10117,10600 10132,10541 10147,10482 10162,10423 10177,10364 10192,10304 10207,10245 10223,10186 10238,10127 10253,10068 10268,10009 10283,9950 10298,9891 10313,9832 10328,9772 10343,9713 10358,9654 10373,9595 10388,9536 10403,9477 10419,9418 10434,9359 10449,9300 10464,9240 10479,9181 10494,9122 10509,9063 10524,9004 10539,8945 10554,8886 10569,8827 10584,8768 10600,8709 10615,8649 10630,8590 10645,8531 10660,8472 10675,8413 10690,8354 10705,8295 10720,8236 10735,8177 10750,8117 10765,8058 10781,7999 10796,7941 10811,7882 10826,7823 10841,7764 10856,7705 10871,7646 10886,7587 10901,7527 10916,7468 10931,7409 10946,7350 10961,7291 10977,7232 10992,7173 11007,7114 11022,7055 11037,6995 11052,6936 11067,6877 11082,6818 11097,6759 11112,6700 11127,6641 11142,6582 11158,6523 11173,6464 11188,6404 11203,6345 11218,6286 11233,6227 11248,6168 11263,6109 11278,6050 11293,5991 11308,5932 11323,5872 11339,5813 11354,5754 11369,5695 11384,5636 11399,5577 11414,5518 11429,5459 11444,5400 11459,5340 11474,5281 11489,5222 11504,5163 11519,5104 11535,5045 11550,4986 11565,4927 11580,4868 11595,4809 11610,4749 11625,4690 11640,4631 11655,4572 11670,4513 11685,4454 11700,4395 11716,4454 11731,4395 11746,4336 11761,4395 11776,4336 11791,4277 11806,4217 11821,4277 11836,4336 11851,4277 11866,4336 11881,4395 11896,4454 11912,4395 11927,4454 11942,4395 11957,4454 11972,4395 11987,4336 12002,4395 12017,4454 12032,4395 12047,4336 12062,4277 12077,4336 12093,4395 12108,4454 12123,4395 12138,4454 12153,4395 12168,4454 12183,4395 12198,4454 12213,4395 12228,4336 12243,4395 12258,4454 12274,4395 12289,4336 12304,4395 12319,4336 12334,4395 12349,4336 12364,4277 12379,4336 12394,4395 12409,4336 12424,4395 12439,4336 12454,4395 12470,4336 12485,4395 12500,4336 12515,4277 12530,4336 12545,4277 12560,4336 12575,4395 12590,4454 12605,4395 12620,4336 12635,4395 12651,4336 12666,4395 12681,4454 12696,4395 12711,4454 12726,4395 12741,4336 12756,4277 12771,4217 12786,4277 12801,4336 12816,4277 12832,4336 12847,4277 12862,4336 12877,4395 12892,4336 12907,4395 12922,4454 12937,4395 12952,4336 12967,4277 12982,4336 12997,4277 13012,4336 13028,4395 13043,4454 13058,4395 13073,4336 13088,4395 13103,4336 13118,4395 13133,4336 13148,4277 13163,4217 13178,4277 13193,4217 13209,4277 13224,4217 13239,4277 13254,4336 13269,4277 13284,4336 13299,4395 13314,4454 13329,4395 13344,4336 13359,4277 13374,4336 13390,4277 13405,4336 13420,4395 13435,4336 13450,4395 13465,4454 13480,4395 13495,4336 13510,4277 13525,4336 13540,4277 13555,4217 13570,4277 13586,4336 13601,4395 13616,4454 13631,4395 13646,4336 13661,4277 13676,4336 13691,4395 13706,4454 13721,4395 13736,4454 13751,4395 13767,4336 13782,4277 13797,4217 13812,4277 13827,4217 13842,4277 13857,4336 13872,4277 13887,4336 13902,4277 13917,4336 13932,4277 13948,4336 13963,4277 13978,4217 13993,4277 14008,4217 14023,4158 14038,4099 14053,4158 14068,4099 14083,4158 14098,4099 14113,4040 14128,4099 14144,4158 14159,4217 14174,4158 14189,4217 14204,4277 14219,4217 14234,4277 14249,4217 14264,4158 14279,4217 14294,4277 14309,4217 14325,4277 14340,4336 14355,4277 14370,4336 14385,4277 14400,4336 14415,4277 14430,4336 14445,4395 14460,4336 14475,4277 14490,4336 14506,4277 14521,4217 14536,4158 14551,4217 14566,4158 14581,4217 14596,4158 14611,4217 14626,4277 14641,4217 14656,4158 14671,4217 14686,4158 14702,4217 14717,4277 14732,4217 14747,4277 14762,4217 14777,4277 14792,4336 14807,4277 14822,4217 14837,4277 14852,4217 14867,4277 14883,4336 14898,4395 14913,4336 14928,4277 14943,4217 14958,4158 14973,4099 14988,4158 15003,4099 15018,4040 15033,4099 15048,4040 15064,4099 15079,4040 15094,3981 15109,3922 15124,3981 15139,3922 15154,3863 15169,3922 15184,3863 15199,3922 15214,3981 15229,3922 15244,3981 15260,3922 15275,3863 15290,3922 15305,3863 15320,3922 15335,3863 15350,3922 15365,3981 15380,3922 15395,3863 15410,3804 15425,3863 15441,3922 15456,3981 15471,4040 15486,3981 15501,4040 15516,3981 15531,3922 15546,3981 15561,4040 15576,3981 15591,3922 15606,3981 15622,4040 15637,3981 15652,4040 15667,4099 15682,4040 15697,3981 15712,3922 15727,3981 15742,3922 15757,3863 15772,3804 15787,3745 15802,3686 15818,3745 15833,3686 15848,3626 15863,3686 15878,3626 15893,3686 15908,3745 15923,3804 15938,3745 15953,3686 15968,3745 15983,3804 15999,3863 16014,3922 16029,3863 16044,3922 16059,3981 16074,3922 16089,3981 16104,3922 16119,3863 16134,3922 16148,3981 16163,3922 16179,3863 16194,3804 16209,3745 16224,3804 16239,3863 16254,3922 16269,3863 16284,3804 16299,3745 16314,3686 16329,3745 16344,3686 16359,3626 16375,3567 16390,3626 16405,3567 16420,3508 16435,3449 16450,3508 16465,3567 16480,3508 16495,3567 16510,3508 16525,3449 16540,3508 16556,3449 16571,3390 16586,3331 16601,3272 16616,3331 16631,3390 16646,3449 16661,3508 16676,3567 16691,3626 16706,3686 16721,3626 16737,3567 16752,3626 16767,3567 16782,3508 16797,3567 16812,3626 16827,3567 16842,3508 16857,3567 16872,3626 16887,3686 16902,3745 16917,3804 16933,3745 16948,3804 16963,3863 16978,3804 16993,3745 17008,3686 17023,3626 17038,3686 17053,3626 17068,3686 17083,3626 17098,3686 17114,3626 17129,3567 17144,3626 17159,3686 17174,3745 17189,3686 17204,3626 17219,3567 17234,3626 17249,3567 17264,3508 17279,3567 17295,3626 17310,3686 17325,3745 17340,3686 17355,3745 17370,3686 17385,3745 17400,3686 17415,3626 17430,3567 17445,3508 17460,3567 17475,3508 17491,3567 17506,3508 17521,3449 17536,3390 17551,3331 17566,3272 17581,3331 17596,3272 17611,3213 17626,3154 17641,3094 17656,3035 17672,3094 17687,3154 17702,3213 17717,3154 17732,3213 17747,3272 17762,3213 17777,3154 17792,3213 17807,3154 17822,3094 17837,3154 17853,3213 17868,3154 17883,3094 17898,3035 17913,2976 17928,3035 17943,3094 17958,3154 17973,3094 17988,3154 18003,3213 18018,3272 18033,3331 18049,3390 18064,3449 18079,3390 18094,3449 18109,3508 18124,3449 18139,3390 18154,3331 18169,3390 18184,3331 18199,3272 18214,3331 18230,3390 18245,3449 18260,3508 18275,3567 18290,3626 18305,3567 18320,3508 18335,3449 18350,3390 18365,3449 18380,3390 18395,3449 18411,3390 18426,3331 18441,3272 18456,3331 18471,3390 18486,3449 18501,3508 18516,3567 18531,3508 18546,3567 18561,3626 18576,3686 18591,3626 18607,3686 18622,3745 18637,3686 18652,3745 18667,3804 18682,3863 18697,3922 18712,3863 18727,3804 18742,3863 18757,3804 18772,3745 18788,3686 18803,3626 18818,3686 18833,3745 18848,3686 18863,3745 18878,3804 18893,3863 18908,3804 18923,3745 18938,3804 18953,3863 18969,3804 18984,3745 18999,3804 19014,3745 19029,3686 19044,3626 19059,3567 19074,3626 19089,3567 19104,3626 19119,3686 19134,3626 19149,3567 19165,3626 19180,3686 19195,3745 19210,3686 19225,3626 19240,3686 19255,3626 19270,3686 19285,3745 19300,3804 19315,3863 19330,3804 19346,3745 19361,3686 19376,3745 19391,3804 19406,3863 19421,3922 19436,3981 19451,3922 19466,3863 19481,3922 19496,3863 19511,3922 19527,3981 19542,4040 19557,4099 19572,4040 19587,3981 19602,4040 19617,3981 19632,4040 19647,3981 19662,4040 19677,3981 19692,3922 19707,3981 19723,4040 19738,4099 19753,4158 19768,4217 19783,4277 19798,4217 19813,4277 19828,4217 19843,4277 19858,4336 19873,4277 19888,4217 19904,4158 19919,4099 19934,4158 19949,4099 19964,4158 19979,4099 19994,4040 20009,4099 20024,4040 20039,3981 20054,4040 20069,4099 20085,4040 20100,4099 20115,4158 20130,4217 20145,4277 20160,4217 20175,4158 20190,4217 20205,4158 20220,4217 20235,4158 20250,4099 20265,4158 20281,4099 20296,4158 20311,4217 20326,4158 20341,4217 20356,4277 20371,4336 20386,4277 20401,4217 20416,4158 20431,4217 20446,4158 20462,4217 20477,4158 20492,4099 20507,4040 20522,3981 20537,3922 20552,3863 20567,3922 20582,3863 20597,3922 20612,3981 20627,4040 20643,3981 20658,4040 20673,3981 20688,3922 20703,3863 20718,3922 20733,3981 20748,4040 20763,4099 20778,4158 20793,4217 20808,4277 20823,4336 20839,4277 20854,4217 20869,4277 20884,4336 20899,4395 20914,4454 20929,4395 20944,4336 20959,4395 20974,4336 20989,4277 21004,4336 21020,4277 21035,4336 21050,4277 21065,4336 21080,4277 21095,4336 21110,4395 21125,4336 21140,4395 21155,4454 21170,4395 21185,4336 21201,4277 21216,4336 21231,4277 21246,4217 21261,4277 21276,4217 21291,4277 21306,4217 21321,4277 21336,4217 21351,4158 21366,4217 21381,4277 21397,4336 21412,4395 21427,4454 21442,4395 21457,4336 21472,4277 21487,4336 21502,4277 21517,4217 21532,4158 21547,4099 21562,4158 21578,4217 21593,4277 21608,4336 21623,4395 21638,4454 21653,4395 21668,4336 21683,4395 21698,4336 21713,4277 21728,4336 21743,4277 21758,4217 21774,4277 21789,4336 21804,4395 21819,4454 21834,4395 21849,4336 21864,4395 21879,4336 21894,4277 21909,4336 21924,4395 21939,4454 21955,4395 21970,4454 21985,4395 22000,4336 22015,4277 22030,4217 22045,4158 22060,4099 22075,4158 22090,4217 22105,4277 22120,4217 22136,4158 22151,4099 22166,4040 22181,3981 22196,4040 22211,3981 22226,3922 22241,3863 22256,3804 22271,3745 22286,3686 22301,3626 22316,3686 22332,3745 22347,3686 22362,3626 22377,3567 22392,3508 22407,3449 22422,3508 22437,3449 22452,3508 22467,3567 22482,3626 22497,3567 22513,3626 22528,3686 22543,3626 22558,3567 22573,3626 22588,3686 22603,3745 22618,3804 22633,3745 22648,3686 22663,3626 22678,3567 22694,3508 22709,3567 22724,3508 22739,3567 22754,3626 22769,3686 22784,3626 22799,3686 22814,3745 22829,3686 22844,3745 22859,3686 22874,3626 22890,3567 22905,3508 22920,3567 22935,3508 22950,3567 22965,3508 22980,3567 22995,3626 23010,3686 23025,3626 23040,3567 23055,3626 23071,3567 23086,3626 23101,3567 23116,3508 23131,3567 23146,3508 23161,3449 23176,3508 23191,3449 23206,3508 23221,3449 23236,3508 23252,3449 23267,3390 23282,3331 23297,3272 23312,3331 23327,3390 23342,3331 23357,3272 23372,3331 23387,3272 23402,3213 23417,3154 23432,3213 23448,3272 23463,3331 23478,3272 23493,3331 23508,3390 23523,3449 23538,3390 23553,3449 23568,3390 23583,3449 23598,3390 23613,3449 23629,3508 23644,3567 23659,3626 23674,3686 23689,3745 23704,3686 23719,3745 23734,3686 23749,3626 23764,3567 23779,3626 23794,3686 23810,3745 23825,3686 23840,3626 23855,3567 23870,3626 23885,3686 23900,3626 23915,3567 23930,3508 23945,3449 23960,3508 23975,3449 23990,3508 24006,3449 24021,3508 24036,3567 24051,3626 24066,3686 24081,3626 24096,3686 24111,3745 24126,3804 24141,3863 24156,3922 24171,3981 24187,4040 24202,4099 24217,4158 24232,4217 24247,4277 24262,4336 24277,4395 24292,4454 24307,4513 24322,4572 24337,4631 24352,4690 24368,4749 24383,4809 24398,4868 24413,4927 24428,4986 24443,5045 24458,5104 24473,5163 24488,5222 24503,5281 24518,5340 24533,5400 24548,5459 24564,5518 24579,5577 24594,5636 24609,5695 24624,5754 24639,5813 24654,5872 24669,5932 24684,5991 24699,6050 24714,6109 24729,6168 24745,6227 24760,6286 24775,6345 24790,6404 24805,6464 24820,6523 24835,6582 24850,6641 24865,6700 24880,6759 24895,6818 24910,6877 24926,6936 24941,6995 24956,7055 24971,7114 24986,7173 25001,7232 25016,7291 25031,7350 25046,7409 25061,7468 25076,7527 25091,7587 25106,7646 25122,7705 25137,7764 25152,7823 25167,7882 25182,7941 25197,7999 25212,8058 25227,8117 25242,8177 25257,8236 25272,8295 25287,8354 25303,8413 25318,8472 25333,8531 25348,8590 25363,8649 25378,8709 25393,8768 25408,8827 25423,8886 25438,8945 25453,9004 25468,9063 25484,9122 25499,9181 25514,9240 25529,9300 25544,9359 25559,9418 25574,9477 25589,9536 25604,9595 25619,9654 25634,9713 25649,9772 25664,9832 25680,9891 25695,9950 25710,10009 25725,10068 25740,10127 25755,10186 25770,10245 25785,10304 25800,10364 25815,10423 25830,10482 25845,10541 25861,10600 25876,10659 25891,10718 25906,10777 25921,10836 25936,10895 25951,10955 25966,11014 25981,11073 25996,11132 26011,11191 26026,11250 26042,11309 26057,11368 26072,11427 26087,11487 26102,11546 26117,11605 26132,11664 26147,11723 26162,11782 26177,11841 26192,11900 26207,11959 26222,12018 26238,12078 26253,12137 26268,12196 26283,12255 26298,12314 26313,12373 26328,12432 26343,12491 26358,12550 26373,12610 26388,12669 26403,12728 26419,12787 26434,12846 26449,12905 26464,12964 26479,13023 26494,13082 26509,13141 26524,13201 26539,13260 26554,13319 26569,13378 26584,13437 26600,13496 26615,13555 26630,13614 26645,13673 26660,13733 26675,13792 26690,13851 26705,13910 26720,13969 26735,14028 26750,14087 26765,14146 26780,14205 26796,14264 26811,14324 26826,14383 26841,14442 26856,14501 26871,14560 26886,14619 26901,14678 26916,14737 26931,14796 26946,14856 26961,14915 26977,14974 26992,15033 27007,15092 27022,15151 27037,15210 27052,15269 27067,15328 27082,15388 27097,15388 27127,15388 27158,15388 27188,15388 27218,15388 27248,15388 27263,15388 27293,15388 27323,15388 27354,15388 27384,15388 27414,15388 27444,15388 27474,15388 27489,15388 27519,15388 27550,15388 27580,15388 27610,15388 27640,15388 27670,15388 27685,15388 27716,15388 27746,15388 27776,15388 27806,15388 27836,15388 27866,15388 27881,15388 27912,15388 27942,15388 27972,15388 28002,15388 28032,15388 28062,15388 28093,15388 28108,15388 28138,15388 28168,15388 28198,15388 28228,15388 28258,15388 28289,15388 28304,15388 28334,15388 28364,15388 28394,15388 28424,15388 28454,15388 28485,15388 28515,15388 28530,15388 28560,15388 28590,15388 28620,15388 28651,15388 28681,15388 28711,15388 28726,15388 28756,15388 28786,15388 28816,15388 28847,15388 28877,15388 28907,15388 28922,15388 28952,15388 28982,15388 29012,15388 29043,15388 29073,15388 29103,15388 29133,15388 29148,15388 29178,15388 29209,15388 29239,15388 29269,15388 29299,15388 29329,15388 29344,15388 29374,15388 29405,15388 29435,15388 29465,15388 29495,15388 29525,15388 29555,15388 29570,15388 29601,15388 29631,15388 29661,15388 29691,15388 29721,15388 29751,15388 29767,15388 29797,15388 29827,15388 29857,15388 29887,15388 29917,15388 29948,15388 29963,15388 29993,15388 30023,15388 30053,15388 30083,15388 30113,15388 30144,15388 30174,15388 30189,15388 30219,15388 30249,15388 30279,15388 30309,15388 30340,15388 30370,15388 30385,15388 30415,15388 30445,15388 30475,15388 30506,15388 30536,15388 30566,15388 30596,15388 30611,15388 30641,15388 30671,15388 30702,15388 30732,15388 30762,15388 30792,15388 30807,15388 30837,15388 30867,15388 30898,15388 30928,15388 30958,15388 30988,15388 31003,15388 31033,15388 31064,15388 31094,15388 31124,15388 31154,15388 31184,15388 31214,15388 31229,15388 31260,15388 31290,15388 31320,15388 31350,15388 31380,15388 31410,15388 31425,15388 31456,15388 31486,15388 31516,15388 31546,15388 31576,15388 31606,15388 31622,15388"/>
 <path fill="none" stroke="rgb(42,96,153)" stroke-width="80" stroke-linejoin="round" d="M 1476,15328 L 1491,15269 1506,15210 1521,15151 1536,15092 1551,15033 1566,14974 1581,14915 1596,14856 1611,14796 1626,14737 1641,14678 1656,14619 1672,14560 1687,14501 1702,14442 1717,14383 1732,14324 1747,14264 1762,14205 1777,14146 1792,14087 1807,14028 1822,13969 1837,13910 1853,13851 1868,13792 1883,13733 1898,13673 1913,13614 1928,13555 1943,13496 1958,13437 1973,13378 1988,13319 2003,13260 2018,13201 2033,13141 2049,13082 2064,13023 2079,12964 2094,12905 2109,12846 2124,12787 2139,12728 2154,12669 2169,12610 2184,12550 2199,12491 2214,12432 2230,12373 2245,12314 2260,12255 2275,12196 2290,12137 2305,12078 2320,12018 2335,11959 2350,11900 2365,11841 2380,11782 2395,11723 2411,11664 2426,11605 2441,11546 2456,11487 2471,11427 2486,11368 2501,11309 2516,11250 2531,11191 2546,11132 2561,11073 2576,11014 2591,10955 2607,10895 2622,10836 2637,10777 2652,10718 2667,10659 2682,10600 2697,10541 2712,10482 2727,10423 2742,10364 2757,10304 2772,10245 2788,10186 2803,10127 2818,10068 2833,10009 2848,9950 2863,9891 2878,9832 2893,9772 2908,9713 2923,9654 2938,9595 2953,9536 2969,9477 2984,9418 2999,9359 3014,9300 3029,9240 3044,9181 3059,9122 3074,9063 3089,9004 3104,8945 3119,8886 3134,8827 3149,8768 3165,8709 3180,8649 3195,8590 3210,8531 3225,8472 3240,8413 3255,8354 3270,8295 3285,8236 3300,8177 3315,8117 3330,8058 3346,7999 3361,7941 3376,7882 3391,7823 3406,7764 3421,7705 3436,7646 3451,7587 3466,7527 3481,7468 3496,7409 3511,7350 3527,7291 3542,7232 3557,7173 3572,7114 3587,7055 3602,6995 3617,6936 3632,6877 3647,6818 3662,6759 3677,6700 3692,6641 3707,6582 3723,6523 3738,6464 3753,6404 3768,6345 3783,6286 3798,6227 3813,6168 3828,6109 3843,6050 3858,5991 3873,5932 3888,5872 3904,5813 3919,5754 3934,5695 3949,5636 3964,5577 3979,5518 3994,5459 4009,5400 4024,5340 4039,5281 4054,5222 4069,5163 4085,5104 4100,5045 4115,4986 4130,4927 4145,4868 4160,4809 4175,4749 4190,4690 4205,4631 4220,4572 4235,4513 4250,4454 4265,4395 4281,4336 4296,4395 4311,4336 4326,4395 4341,4454 4356,4395 4371,4454 4386,4395 4401,4454 4416,4395 4431,4336 4446,4277 4462,4336 4477,4277 4492,4336 4507,4277 4522,4336 4537,4277 4552,4217 4567,4158 4582,4099 4597,4040 4612,3981 4627,3922 4643,3863 4658,3922 4673,3981 4688,3922 4703,3981 4718,3922 4733,3981 4748,3922 4763,3981 4778,3922 4793,3863 4808,3922 4823,3981 4839,4040 4854,3981 4869,4040 4884,4099 4899,4158 4914,4217 4929,4277 4944,4336 4959,4277 4974,4217 4989,4158 5004,4099 5020,4040 5035,3981 5050,3922 5065,3981 5080,3922 5095,3981 5110,4040 5125,3981 5140,4040 5155,3981 5170,4040 5185,4099 5201,4040 5216,3981 5231,4040 5246,4099 5261,4158 5276,4099 5291,4040 5306,4099 5321,4158 5336,4217 5351,4158 5366,4099 5381,4040 5397,4099 5412,4158 5427,4099 5442,4158 5457,4099 5472,4158 5487,4099 5502,4158 5517,4099 5532,4040 5547,3981 5562,3922 5578,3863 5593,3804 5608,3745 5623,3686 5638,3626 5653,3567 5668,3626 5683,3686 5698,3745 5713,3686 5728,3626 5743,3686 5759,3745 5774,3686 5789,3626 5804,3686 5819,3745 5834,3686 5849,3626 5864,3567 5879,3508 5894,3567 5909,3508 5924,3567 5939,3626 5955,3686 5970,3745 5985,3686 6000,3626 6015,3686 6030,3626 6045,3567 6060,3508 6075,3449 6090,3390 6105,3331 6120,3390 6136,3331 6151,3390 6166,3449 6181,3390 6196,3449 6211,3508 6226,3449 6241,3390 6256,3331 6271,3272 6286,3331 6301,3272 6317,3331 6332,3272 6347,3213 6362,3154 6377,3094 6392,3154 6407,3213 6422,3154 6437,3213 6452,3154 6467,3213 6482,3154 6497,3094 6513,3035 6528,2976 6543,3035 6558,3094 6573,3154 6588,3213 6603,3154 6618,3094 6633,3035 6648,3094 6663,3035 6678,2976 6694,3035 6709,3094 6724,3154 6739,3094 6754,3154 6769,3213 6784,3154 6799,3213 6814,3272 6829,3331 6844,3390 6859,3449 6875,3390 6890,3449 6905,3508 6920,3567 6935,3626 6950,3686 6965,3745 6980,3686 6995,3626 7010,3567 7025,3626 7040,3686 7055,3745 7071,3686 7086,3745 7101,3686 7116,3626 7131,3567 7146,3508 7161,3449 7176,3390 7191,3449 7206,3508 7221,3449 7236,3508 7252,3449 7267,3508 7282,3567 7297,3626 7312,3567 7327,3508 7342,3567 7357,3626 7372,3686 7387,3626 7402,3686 7417,3626 7433,3567 7448,3508 7463,3567 7478,3508 7493,3449 7508,3508 7523,3567 7538,3508 7553,3449 7568,3390 7583,3331 7598,3390 7613,3449 7629,3508 7644,3449 7659,3508 7674,3449 7689,3508 7704,3449 7719,3508 7734,3567 7749,3508 7764,3449 7779,3390 7794,3449 7810,3390 7825,3331 7840,3390 7855,3449 7870,3390 7885,3331 7900,3390 7915,3331 7930,3272 7945,3213 7960,3272 7975,3213 7991,3272 8006,3213 8021,3154 8036,3213 8051,3272 8066,3213 8081,3272 8096,3331 8111,3272 8126,3213 8141,3272 8156,3213 8171,3272 8187,3331 8202,3272 8217,3213 8232,3272 8247,3331 8262,3390 8277,3331 8292,3272 8307,3331 8322,3272 8337,3331 8352,3272 8368,3331 8383,3390 8398,3331 8413,3272 8428,3331 8443,3272 8458,3331 8473,3272 8488,3331 8503,3390 8518,3449 8533,3508 8549,3449 8564,3390 8579,3449 8594,3508 8609,3567 8624,3508 8639,3449 8654,3390 8669,3449 8684,3508 8699,3567 8714,3508 8729,3449 8745,3508 8760,3449 8775,3390 8790,3331 8805,3272 8820,3331 8835,3390 8850,3449 8865,3390 8880,3449 8895,3390 8910,3449 8926,3508 8941,3567 8956,3508 8971,3567 8986,3626 9001,3686 9016,3626 9031,3567 9046,3508 9061,3567 9076,3626 9091,3686 9107,3626 9122,3686 9137,3745 9152,3804 9167,3745 9182,3804 9197,3863 9212,3804 9227,3863 9242,3804 9257,3745 9272,3686 9287,3626 9303,3686 9318,3745 9333,3686 9348,3745 9363,3686 9378,3626 9393,3686 9408,3745 9423,3804 9438,3863 9453,3922 9468,3981 9484,4040 9499,3981 9514,3922 9529,3981 9544,4040 9559,3981 9574,3922 9589,3863 9604,3804 9619,3745 9634,3686 9649,3626 9665,3686 9680,3626 9695,3686 9710,3745 9725,3804 9740,3745 9755,3686 9770,3745 9785,3804 9800,3745 9815,3804 9830,3863 9845,3804 9861,3863 9876,3804 9891,3745 9906,3804 9921,3745 9936,3804 9951,3863 9966,3922 9981,3863 9996,3804 10011,3745 10026,3804 10042,3745 10057,3804 10072,3863 10087,3804 10102,3863 10117,3922 10132,3981 10147,3922 10162,3863 10177,3922 10192,3981 10207,3922 10223,3981 10238,3922 10253,3981 10268,3922 10283,3863 10298,3922 10313,3863 10328,3804 10343,3863 10358,3922 10373,3863 10388,3922 10403,3981 10419,3922 10434,3863 10449,3922 10464,3863 10479,3804 10494,3863 10509,3804 10524,3745 10539,3686 10554,3745 10569,3686 10584,3745 10600,3686 10615,3745 10630,3804 10645,3745 10660,3686 10675,3626 10690,3686 10705,3626 10720,3686 10735,3745 10750,3686 10765,3626 10781,3567 10796,3626 10811,3567 10826,3626 10841,3686 10856,3626 10871,3686 10886,3745 10901,3804 10916,3863 10931,3804 10946,3863 10961,3922 10977,3863 10992,3804 11007,3745 11022,3686 11037,3626 11052,3686 11067,3745 11082,3686 11097,3745 11112,3686 11127,3745 11142,3804 11158,3745 11173,3804 11188,3745 11203,3804 11218,3745 11233,3686 11248,3626 11263,3686 11278,3626 11293,3567 11308,3508 11323,3567 11339,3508 11354,3449 11369,3508 11384,3567 11399,3508 11414,3567 11429,3626 11444,3686 11459,3745 11474,3686 11489,3626 11504,3686 11519,3626 11535,3567 11550,3626 11565,3686 11580,3745 11595,3686 11610,3626 11625,3567 11640,3626 11655,3686 11670,3626 11685,3686 11700,3745 11716,3804 11731,3863 11746,3804 11761,3863 11776,3922 11791,3981 11806,4040 11821,4099 11836,4040 11851,3981 11866,4040 11881,3981 11896,3922 11912,3981 11927,3922 11942,3863 11957,3922 11972,3863 11987,3804 12002,3745 12017,3686 12032,3745 12047,3686 12062,3626 12077,3567 12093,3508 12108,3567 12123,3508 12138,3567 12153,3626 12168,3686 12183,3745 12198,3686 12213,3745 12228,3686 12243,3745 12258,3804 12274,3745 12289,3804 12304,3745 12319,3804 12334,3745 12349,3804 12364,3745 12379,3686 12394,3626 12409,3686 12424,3745 12439,3804 12454,3863 12470,3804 12485,3863 12500,3804 12515,3863 12530,3804 12545,3745 12560,3686 12575,3745 12590,3686 12605,3745 12620,3686 12635,3626 12651,3686 12666,3745 12681,3804 12696,3745 12711,3686 12726,3626 12741,3567 12756,3626 12771,3686 12786,3745 12801,3804 12816,3745 12832,3804 12847,3745 12862,3804 12877,3863 12892,3804 12907,3863 12922,3804 12937,3745 12952,3804 12967,3745 12982,3804 12997,3745 13012,3686 13028,3745 13043,3804 13058,3745 13073,3804 13088,3863 13103,3804 13118,3745 13133,3686 13148,3745 13163,3686 13178,3626 13193,3567 13209,3508 13224,3449 13239,3390 13254,3449 13269,3508 13284,3449 13299,3508 13314,3567 13329,3508 13344,3449 13359,3508 13374,3449 13390,3508 13405,3449 13420,3508 13435,3567 13450,3508 13465,3567 13480,3508 13495,3449 13510,3390 13525,3331 13540,3390 13555,3331 13570,3272 13586,3213 13601,3272 13616,3331 13631,3390 13646,3331 13661,3272 13676,3331 13691,3390 13706,3331 13721,3390 13736,3449 13751,3508 13767,3449 13782,3390 13797,3331 13812,3390 13827,3331 13842,3272 13857,3331 13872,3390 13887,3331 13902,3390 13917,3331 13932,3390 13948,3331 13963,3390 13978,3331 13993,3272 14008,3213 14023,3154 14038,3094 14053,3035 14068,3094 14083,3035 14098,3094 14113,3154 14128,3213 14144,3272 14159,3331 14174,3390 14189,3331 14204,3390 14219,3449 14234,3508 14249,3449 14264,3508 14279,3567 14294,3508 14309,3567 14325,3626 14340,3567 14355,3508 14370,3567 14385,3626 14400,3567 14415,3626 14430,3686 14445,3745 14460,3686 14475,3745 14490,3686 14506,3626 14521,3567 14536,3508 14551,3449 14566,3508 14581,3567 14596,3508 14611,3567 14626,3626 14641,3686 14656,3626 14671,3686 14686,3626 14702,3686 14717,3745 14732,3686 14747,3626 14762,3686 14777,3745 14792,3804 14807,3863 14822,3922 14837,3981 14852,4040 14867,4099 14883,4158 14898,4217 14913,4277 14928,4336 14943,4277 14958,4217 14973,4158 14988,4217 15003,4158 15018,4217 15033,4158 15048,4217 15064,4277 15079,4217 15094,4158 15109,4099 15124,4158 15139,4099 15154,4158 15169,4217 15184,4277 15199,4217 15214,4277 15229,4217 15244,4277 15260,4336 15275,4395 15290,4454 15305,4395 15320,4454 15335,4395 15350,4336 15365,4395 15380,4336 15395,4277 15410,4217 15425,4158 15441,4217 15456,4277 15471,4336 15486,4395 15501,4454 15516,4513 15531,4454 15546,4395 15561,4336 15576,4395 15591,4454 15606,4513 15622,4572 15637,4513 15652,4572 15667,4513 15682,4572 15697,4513 15712,4454 15727,4513 15742,4572 15757,4513 15772,4454 15787,4513 15802,4454 15818,4395 15833,4454 15848,4513 15863,4454 15878,4513 15893,4454 15908,4513 15923,4572 15938,4631 15953,4572 15968,4513 15983,4454 15999,4513 16014,4454 16029,4395 16044,4454 16059,4513 16074,4454 16089,4395 16104,4454 16119,4513 16134,4572 16148,4631 16163,4572 16179,4631 16194,4690 16209,4749 16224,4690 16239,4749 16254,4690 16269,4631 16284,4572 16299,4513 16314,4572 16329,4631 16344,4690 16359,4749 16375,4690 16390,4631 16405,4690 16420,4749 16435,4809 16450,4749 16465,4690 16480,4631 16495,4572 16510,4513 16525,4572 16540,4513 16556,4572 16571,4631 16586,4690 16601,4749 16616,4809 16631,4868 16646,4927 16661,4986 16676,5045 16691,5104 16706,5163 16721,5222 16737,5281 16752,5340 16767,5400 16782,5459 16797,5518 16812,5577 16827,5636 16842,5695 16857,5754 16872,5813 16887,5872 16902,5932 16917,5991 16933,6050 16948,6109 16963,6168 16978,6227 16993,6286 17008,6345 17023,6404 17038,6464 17053,6523 17068,6582 17083,6641 17098,6700 17114,6759 17129,6818 17144,6877 17159,6936 17174,6995 17189,7055 17204,7114 17219,7173 17234,7232 17249,7291 17264,7350 17279,7409 17295,7468 17310,7527 17325,7587 17340,7646 17355,7705 17370,7764 17385,7823 17400,7882 17415,7941 17430,7999 17445,8058 17460,8117 17475,8177 17491,8236 17506,8295 17521,8354 17536,8413 17551,8472 17566,8531 17581,8590 17596,8649 17611,8709 17626,8768 17641,8827 17656,8886 17672,8945 17687,9004 17702,9063 17717,9122 17732,9181 17747,9240 17762,9300 17777,9359 17792,9418 17807,9477 17822,9536 17837,9595 17853,9654 17868,9713 17883,9772 17898,9832 17913,9891 17928,9950 17943,10009 17958,10068 17973,10127 17988,10186 18003,10245 18018,10304 18033,10364 18049,10423 18064,10482 18079,10541 18094,10600 18109,10659 18124,10718 18139,10777 18154,10836 18169,10895 18184,10955 18199,11014 18214,11073 18230,11132 18245,11191 18260,11250 18275,11309 18290,11250 18305,11309 18320,11368 18335,11309 18350,11368 18365,11427 18380,11487 18395,11546 18411,11605 18426,11546 18441,11605 18456,11546 18471,11487 18486,11546 18501,11605 18516,11546 18531,11487 18546,11427 18561,11487 18576,11427 18591,11487 18607,11427 18622,11368 18637,11427 18652,11368 18667,11427 18682,11487 18697,11427 18712,11368 18727,11309 18742,11250 18757,11309 18772,11368 18788,11309 18803,11250 18818,11309 18833,11250 18848,11309 18863,11368 18878,11427 18893,11487 18908,11546 18923,11605 18938,11664 18953,11723 18969,11664 18984,11605 18999,11546 19014,11605 19029,11546 19044,11487 19059,11546 19074,11605 19089,11664 19104,11723 19119,11664 19134,11723 19149,11782 19165,11841 19180,11900 19195,11841 19210,11782 19225,11841 19240,11900 19255,11841 19270,11782 19285,11841 19300,11900 19315,11959 19330,11900 19346,11959 19361,11900 19376,11841 19391,11782 19406,11723 19421,11664 19436,11605 19451,11664 19466,11605 19481,11546 19496,11605 19511,11546 19527,11605 19542,11546 19557,11605 19572,11664 19587,11605 19602,11546 19617,11487 19632,11427 19647,11487 19662,11546 19677,11605 19692,11664 19707,11723 19723,11664 19738,11723 19753,11782 19768,11841 19783,11782 19798,11841 19813,11900 19828,11841 19843,11900 19858,11841 19873,11782 19888,11841 19904,11782 19919,11841 19934,11900 19949,11959 19964,11900 19979,11959 19994,12018 20009,12078 20024,12018 20039,11959 20054,11900 20069,11841 20085,11782 20100,11723 20115,11782 20130,11841 20145,11900 20160,11841 20175,11900 20190,11841 20205,11900 20220,11841 20235,11900 20250,11959 20265,11900 20281,11841 20296,11900 20311,11959 20326,12018 20341,11959 20356,11900 20371,11959 20386,12018 20401,12078 20416,12137 20431,12078 20446,12137 20462,12078 20477,12018 20492,12078 20507,12018 20522,12078 20537,12018 20552,11959 20567,11900 20582,11959 20597,12018 20612,11959 20627,11900 20643,11841 20658,11782 20673,11841 20688,11900 20703,11841 20718,11782 20733,11723 20748,11782 20763,11841 20778,11782 20793,11841 20808,11900 20823,11959 20839,11900 20854,11959 20869,11900 20884,11841 20899,11900 20914,11959 20929,12018 20944,12078 20959,12018 20974,11959 20989,11900 21004,11959 21020,12018 21035,11959 21050,11900 21065,11959 21080,12018 21095,12078 21110,12018 21125,11959 21140,11900 21155,11841 21170,11782 21185,11723 21201,11782 21216,11841 21231,11900 21246,11841 21261,11900 21276,11841 21291,11900 21306,11841 21321,11900 21336,11841 21351,11900 21366,11841 21381,11782 21397,11723 21412,11664 21427,11605 21442,11546 21457,11605 21472,11546 21487,11605 21502,11664 21517,11723 21532,11782 21547,11841 21562,11900 21578,11841 21593,11782 21608,11723 21623,11782 21638,11723 21653,11664 21668,11605 21683,11546 21698,11605 21713,11664 21728,11723 21743,11664 21758,11723 21774,11664 21789,11723 21804,11664 21819,11605 21834,11546 21849,11605 21864,11664 21879,11605 21894,11546 21909,11487 21924,11427 21939,11487 21955,11546 21970,11605 21985,11664 22000,11723 22015,11664 22030,11605 22045,11664 22060,11723 22075,11782 22090,11841 22105,11900 22120,11841 22136,11900 22151,11841 22166,11900 22181,11841 22196,11900 22211,11959 22226,11900 22241,11841 22256,11782 22271,11841 22286,11900 22301,11841 22316,11782 22332,11723 22347,11664 22362,11723 22377,11664 22392,11723 22407,11782 22422,11723 22437,11782 22452,11723 22467,11664 22482,11723 22497,11664 22513,11605 22528,11546 22543,11605 22558,11664 22573,11723 22588,11664 22603,11723 22618,11664 22633,11723 22648,11782 22663,11723 22678,11664 22694,11723 22709,11782 22724,11723 22739,11664 22754,11723 22769,11664 22784,11723 22799,11664 22814,11723 22829,11782 22844,11841 22859,11782 22874,11723 22890,11782 22905,11841 22920,11782 22935,11723 22950,11664 22965,11723 22980,11664 22995,11605 23010,11546 23025,11605 23040,11546 23055,11605 23071,11546 23086,11605 23101,11546 23116,11487 23131,11546 23146,11487 23161,11546 23176,11487 23191,11546 23206,11605 23221,11664 23236,11723 23252,11782 23267,11723 23282,11782 23297,11723 23312,11664 23327,11723 23342,11782 23357,11723 23372,11782 23387,11841 23402,11900 23417,11841 23432,11900 23448,11841 23463,11782 23478,11841 23493,11900 23508,11841 23523,11900 23538,11841 23553,11782 23568,11723 23583,11664 23598,11723 23613,11664 23629,11723 23644,11782 23659,11723 23674,11782 23689,11723 23704,11664 23719,11605 23734,11546 23749,11487 23764,11546 23779,11487 23794,11427 23810,11487 23825,11427 23840,11487 23855,11546 23870,11605 23885,11664 23900,11723 23915,11664 23930,11723 23945,11782 23960,11841 23975,11900 23990,11841 24006,11900 24021,11959 24036,11900 24051,11841 24066,11782 24081,11723 24096,11782 24111,11841 24126,11900 24141,11959 24156,12018 24171,12078 24187,12137 24202,12196 24217,12255 24232,12314 24247,12373 24262,12432 24277,12491 24292,12550 24307,12610 24322,12669 24337,12728 24352,12787 24368,12846 24383,12905 24398,12964 24413,13023 24428,13082 24443,13141 24458,13201 24473,13260 24488,13319 24503,13378 24518,13437 24533,13496 24548,13555 24564,13614 24579,13673 24594,13733 24609,13792 24624,13851 24639,13910 24654,13969 24669,14028 24684,14087 24699,14146 24714,14205 24729,14264 24745,14324 24760,14383 24775,14442 24790,14501 24805,14560 24820,14619 24835,14678 24850,14737 24865,14796 24880,14856 24895,14915 24910,14974 24926,15033 24941,15092 24956,15151 24971,15210 24986,15269 25001,15328 25016,15388 25046,15388 25076,15388 25106,15388 25137,15388 25167,15388 25182,15388 25212,15388 25242,15388 25272,15388 25303,15388 25333,15388 25363,15388 25393,15388 25408,15388 25438,15388 25468,15388 25499,15388 25529,15388 25559,15388 25589,15388 25604,15388 25634,15388 25664,15388 25695,15388 25725,15388 25755,15388 25785,15388 25800,15388 25830,15388 25861,15388 25891,15388 25921,15388 25951,15388 25981,15388 26011,15388 26026,15388 26057,15388 26087,15388 26117,15388 26147,15388 26177,15388 26207,15388 26222,15388 26253,15388 26283,15388 26313,15388 26343,15388 26373,15388 26403,15388 26434,15388 26449,15388 26479,15388 26509,15388 26539,15388 26569,15388 26600,15388 26630,15388 26645,15388 26675,15388 26705,15388 26735,15388 26765,15388 26796,15388 26826,15388 26841,15388 26871,15388 26901,15388 26931,15388 26961,15388 26992,15388 27022,15388 27052,15388 27067,15388 27097,15388 27127,15388 27158,15388 27188,15388 27218,15388 27248,15388 27263,15388 27293,15388 27323,15388 27354,15388 27384,15388 27414,15388 27444,15388 27474,15388 27489,15388 27519,15388 27550,15388 27580,15388 27610,15388 27640,15388 27670,15388 27685,15388 27716,15388 27746,15388 27776,15388 27806,15388 27836,15388 27866,15388 27881,15388 27912,15388 27942,15388 27972,15388 28002,15388 28032,15388 28062,15388 28093,15388 28108,15388 28138,15388 28168,15388 28198,15388 28228,15388 28258,15388 28289,15388 28304,15388 28334,15388 28364,15388 28394,15388 28424,15388 28454,15388 28485,15388 28515,15388 28530,15388 28560,15388 28590,15388 28620,15388 28651,15388 28681,15388 28711,15388 28726,15388 28756,15388 28786,15388 28816,15388 28847,15388 28877,15388 28907,15388 28922,15388 28952,15388 28982,15388 29012,15388 29043,15388 29073,15388 29103,15388 29133,15388 29148,15388 29178,15388 29209,15388 29239,15388 29269,15388 29299,15388 29329,15388 29344,15388 29374,15388 29405,15388 29435,15388 29465,15388 29495,15388 29525,15388 29555,15388 29570,15388 29601,15388 29631,15388 29661,15388 29691,15388 29721,15388 29751,15388 29767,15388 29797,15388 29827,15388 29857,15388 29887,15388 29917,15388 29948,15388 29963,15388 29993,15388 30023,15388 30053,15388 30083,15388 30113,15388 30144,15388 30174,15388 30189,15388 30219,15388 30249,15388 30279,15388 30309,15388 30340,15388 30370,15388 30385,15388 30415,15388 30445,15388 30475,15388 30506,15388 30536,15388 30566,15388 30596,15388 30611,15388 30641,15388 30671,15388 30702,15388 30732,15388 30762,15388 30792,15388 30807,15388 30837,15388 30867,15388 30898,15388 30928,15388 30958,15388 30988,15388 31003,15388 31033,15388 31064,15388 31094,15388 31124,15388 31154,15388 31184,15388 31214,15388 31229,15388 31260,15388 31290,15388 31320,15388 31350,15388 31380,15388 31410,15388 31425,15388 31456,15388 31486,15388 31516,15388 31546,15388 31576,15388 31606,15388 31622,15388"/>
 <text class="TextShape"><tspan class="TextParagraph" font-family="Liberation Sans, sans-serif" font-size="353px" font-weight="400"><tspan class="TextPosition" x="1033" y="15515"><tspan fill="rgb(0,0,0)" stroke="none">0</tspan></tspan></tspan></text>
 <text class="TextShape"><tspan class="TextParagraph" font-family="Liberation Sans, sans-serif" font-size="353px" font-weight="400"><tspan class="TextPosition" x="839" y="12559"><tspan fill="rgb(0,0,0)" stroke="none">50</tspan></tspan></tspan></text>
 <text class="TextShape"><tspan class="TextParagraph" font-family="Liberation Sans, sans-serif" font-size="353px" font-weight="400"><tspan class="TextPosition" x="646" y="9604"><tspan fill="rgb(0,0,0)" stroke="none">100</tspan></tspan></tspan></text>
 <text class="TextShape"><tspan class="TextParagraph" font-family="Liberation Sans, sans-serif" font-size="353px" font-weight="400"><tspan class="TextPosition" x="646" y="6649"><tspan fill="rgb(0,0,0)" stroke="none">150</tspan></tspan></tspan></text>
 <text class="TextShape"><tspan class="TextParagraph" font-family="Liberation Sans, sans-serif" font-size="353px" font-weight="400"><tspan class="TextPosition" x="646" y="3693"><tspan fill="rgb(0,0,0)" stroke="none">200</tspan></tspan></tspan></text>
 <text class="TextShape"><tspan class="TextParagraph" font-family="Liberation Sans, sans-serif" font-size="353px" font-weight="400"><tspan class="TextPosition" x="646" y="738"><tspan fill="rgb(0,0,0)" stroke="none">250</tspan></tspan></tspan></text>
</svg>